<?xml version="1.0" standalone="no"?>
<!DOCTYPE svg PUBLIC "-//W3C//DTD SVG 1.1//EN" "http://www.w3.org/Graphics/SVG/1.1/DTD/svg11.dtd" >
<svg>
<metadata>
Created by FontForge 20090914 at Tue Nov 10 22:38:43 2020
 By www-data
Copyright (c) 2018 by Sentype Foundry. All rights reserved.
</metadata>
<defs>
<font id="Quantify" horiz-adv-x="558" >
  <font-face 
    font-family="Quantify"
    font-weight="400"
    font-stretch="normal"
    units-per-em="1000"
    panose-1="2 0 5 6 0 0 0 2 0 4"
    ascent="800"
    descent="-200"
    x-height="500"
    cap-height="700"
    bbox="0.000976562 -231 1002 914"
    underline-thickness="50"
    underline-position="-50"
    unicode-range="U+000D-U+20AC"
  />
<missing-glyph horiz-adv-x="500" 
 />
    <glyph glyph-name=".notdef" horiz-adv-x="500" 
 />
    <glyph glyph-name="NULL" horiz-adv-x="0" 
 />
    <glyph glyph-name="NULL" horiz-adv-x="0" 
 />
    <glyph glyph-name="nonmarkingreturn" unicode="&#xd;" horiz-adv-x="500" 
 />
    <glyph glyph-name="space" unicode=" " horiz-adv-x="200" 
 />
    <glyph glyph-name="exclam" unicode="!" horiz-adv-x="225" 
d="M113 151c22 -0.666992 40.667 -8.66699 56 -24s23 -34 23 -56c-0.666992 -21.333 -8.66699 -39.833 -24 -55.5s-34 -23.167 -56 -22.5c-21.333 0 -39.833 7.83301 -55.5 23.5s-23.5 34.167 -23.5 55.5c0 22 8 40.667 24 56s34.667 23 56 23zM195 700v-300l-40 -202h-85
l-40 202v300h165z" />
    <glyph glyph-name="quotedbl" unicode="&#x22;" horiz-adv-x="423" 
d="M74 700h148l-99 -255h-93zM243 700h150l-100 -255h-94z" />
    <glyph glyph-name="numbersign" unicode="#" horiz-adv-x="629" 
d="M313 86l22 132l77 -34l-16 -98h-83zM585 391h-139l-14 -82h141l-14 -83h-7h-133h-83h-19h-63l-24 -140h-82l22 140h-140l14 83h140l12 75l76 -35l-5 -40h83l13 82h-48v0h-138v0h-121l14 84h142l22 140h83l-23 -140h82l23 140h82l-22 -140h140z" />
    <glyph glyph-name="dollar" unicode="$" horiz-adv-x="593" 
d="M348 411c32 -8.66699 61.4932 -18.165 88.4932 -28.498s50.167 -23.166 69.5 -38.499s34.5 -33.5 45.5 -54.5s16.5 -46.5 16.5 -76.5v-1c0 -28.667 -5 -55.167 -15 -79.5s-24 -45.666 -42 -63.999s-39.667 -33.5 -65 -45.5s-53 -20 -83 -24v-87h-133v94
c-24 4.66699 -46.833 11.667 -68.5 21s-41.334 20 -59.001 32s-33.167 25 -46.5 39s-23.666 28 -30.999 42l116 75c24.667 -28 50.334 -50 77.001 -66s60 -24 100 -24c12.667 0 25.667 1.33301 39 4s25.166 7 35.499 13s18.833 13.5 25.5 22.5s10 20.167 10 33.5
c0 9.33301 -2.33301 18.333 -7 27s-12.667 17 -24 25s-26.666 15.667 -45.999 23s-43.666 14.666 -72.999 21.999c-36 9.33301 -68.333 19.666 -97 30.999s-52.667 24.833 -72 40.5s-34.166 34.167 -44.499 55.5s-15.5 46.666 -15.5 75.999v2c0 27.333 4.5 52.5 13.5 75.5
s21.5 43.167 37.5 60.5s35 31.666 57 42.999s46.333 19.333 73 24v90h133v-92c49.333 -9.33301 90.333 -25.666 123 -48.999s58.334 -47.333 77.001 -72l-114 -74c-28.667 26.667 -55.667 45.5 -81 56.5s-51.666 16.5 -78.999 16.5c-17.333 0 -32.166 -2.16699 -44.499 -6.5
s-22.5 -9.66602 -30.5 -15.999s-14 -13.333 -18 -21s-6 -14.834 -6 -21.501c-0.666992 -13.333 2.33301 -24.833 9 -34.5s16.834 -18.5 30.501 -26.5s30.5 -15.333 50.5 -22s42.667 -13.334 68 -20.001z" />
    <glyph glyph-name="percent" unicode="%" horiz-adv-x="654" 
d="M566 573l-433 -486l-44 41l433 486zM318 565c0 -20 -3.83301 -38.833 -11.5 -56.5s-18 -33 -31 -46s-28.167 -23.167 -45.5 -30.5s-36 -11 -56 -11s-38.667 3.66699 -56 11s-32.5 17.5 -45.5 30.5s-23.333 28.333 -31 46s-11.5 36.5 -11.5 56.5
c0 19.333 3.83301 37.666 11.5 54.999s18 32.5 31 45.5s28.167 23.333 45.5 31s36 11.5 56 11.5s38.667 -3.83301 56 -11.5s32.5 -18 45.5 -31s23.333 -28.167 31 -45.5s11.5 -35.666 11.5 -54.999zM120 565c0 -15.333 5.16699 -28.5 15.5 -39.5s23.166 -16.5 38.499 -16.5
s28.333 5.5 39 16.5s16 24.167 16 39.5c0 14.667 -5.33301 27.334 -16 38.001s-23.667 16 -39 16s-28.166 -5.33301 -38.499 -16s-15.5 -23.334 -15.5 -38.001zM480 280c20 0 38.667 -3.83301 56 -11.5s32.5 -18 45.5 -31s23.333 -28.167 31 -45.5s11.5 -36 11.5 -56
s-3.83301 -38.667 -11.5 -56s-18 -32.5 -31 -45.5s-28.167 -23.333 -45.5 -31s-36 -11.5 -56 -11.5s-38.833 3.83301 -56.5 11.5s-33 18 -46 31s-23.167 28.167 -30.5 45.5s-11 36 -11 56s3.66699 38.667 11 56s17.5 32.5 30.5 45.5s28.333 23.333 46 31
s36.5 11.5 56.5 11.5zM480 82c15.333 0 28.166 5.16699 38.499 15.5s15.5 23.166 15.5 38.499s-5.16699 28.333 -15.5 39s-23.166 16 -38.499 16s-28.166 -5.33301 -38.499 -16s-15.5 -23.667 -15.5 -39s5.16699 -28.166 15.5 -38.499s23.166 -15.5 38.499 -15.5z" />
    <glyph glyph-name="ampersand" unicode="&#x26;" horiz-adv-x="626" 
d="M596 91l-100.001 -100.003l-55 56l-102 101l-134 135l-8 -7c-18 -16 -27 -35.333 -27 -58c0 -12.667 3 -24.667 9 -36s13.833 -21.333 23.5 -30s21 -15.5 34 -20.5s26.5 -7.5 40.5 -7.5c8 0 16.667 0.333008 26 1s18.333 2.33398 27 5.00098l37 -121
c-14.667 -4.66699 -29.5 -8.33398 -44.5 -11.001s-30.167 -4 -45.5 -4c-33.333 0 -65 6 -95 18s-56.167 28.167 -78.5 48.5s-40.166 44.166 -53.499 71.499s-20 56 -20 86c0 30.667 6.16699 59.834 18.5 87.501s30.166 52.167 53.499 73.5l5 4c-14 18 -25 37.333 -33 58
s-12 42.334 -12 65.001c0 28 5.66699 54.333 17 79s27.333 46.667 48 66s43.834 33.833 69.501 43.5s52.5 14.5 80.5 14.5c24.667 0 47 -3.16699 67 -9.5s38.167 -14.5 54.5 -24.5s31 -21.333 44 -34s24.833 -25.334 35.5 -38.001l-113 -86c-11.333 16 -24 30.667 -38 44
s-30.667 20 -50 20c-21.333 0 -39 -7.5 -53 -22.5s-21 -32.5 -21 -52.5c0 -17.333 6.66699 -31.666 20 -42.999l1 -2l181 -180v101l28 7.5l36 10l39 11l37 10.5v-203c0 -11.333 -1.16699 -22.166 -3.5 -32.499s-5.5 -21.166 -9.5 -32.499z" />
    <glyph glyph-name="quotesingle" unicode="'" horiz-adv-x="255" 
d="M75 700h150l-101 -257h-94l45 257v0z" />
    <glyph glyph-name="parenleft" unicode="(" horiz-adv-x="359" 
d="M162 -64c-44 58.667 -77 123.667 -99 195s-33 144 -33 218s11.167 146.833 33.5 218.5s55.5 137.167 99.5 196.5h166l-40 -49c-28.667 -33.333 -52.667 -70 -72 -110s-33.833 -81.5 -43.5 -124.5s-14.5 -87 -14.5 -132s4.83301 -89 14.5 -132s24 -84.167 43 -123.5
s42.833 -75.333 71.5 -108l41 -49h-167z" />
    <glyph glyph-name="parenright" unicode=")" horiz-adv-x="359" 
d="M30 -64l41 49c28.667 32.667 52.5 68.667 71.5 108s33.333 80.5 43 123.5s14.5 87 14.5 132s-4.83301 89 -14.5 132s-24.167 84.5 -43.5 124.5s-43.333 76.667 -72 110l-40 49h166c44 -59.333 77.167 -124.833 99.5 -196.5s33.5 -144.5 33.5 -218.5
s-11 -146.667 -33 -218s-55 -136.333 -99 -195h-167z" />
    <glyph glyph-name="asterisk" unicode="*" horiz-adv-x="323" 
d="M197 710l61 -34l-53 -72l88 9v-69l-88 10l53 -72l-61 -35l-35 82l-36 -82l-60 35l53 72l-89 -10v69l89 -9l-53 72l60 34l36 -82l35 82v0z" />
    <glyph glyph-name="plus" unicode="+" horiz-adv-x="392" 
d="M362 424v-85h-124v-123h-85v123h-123v85h123v124h85v-124h124v0z" />
    <glyph glyph-name="comma" unicode="," horiz-adv-x="213" 
d="M50 116h133l-89 -228h-84l40 228v0z" />
    <glyph glyph-name="hyphen" unicode="-" horiz-adv-x="389" 
d="M359 264h-329v84h329v-84v0z" />
    <glyph glyph-name="period" unicode="." horiz-adv-x="219" 
d="M110 149c22 0 40.666 -7.66504 55.999 -22.998s22.666 -34 21.999 -56c0 -22 -7.83301 -40.667 -23.5 -56s-34.5 -23 -56.5 -23c-21.333 0.666992 -39.666 8.66699 -54.999 24s-22.666 34.333 -21.999 57c0 21.333 7.66699 39.666 23 54.999s34 22.666 56 21.999z" />
    <glyph glyph-name="slash" unicode="/" horiz-adv-x="521" 
d="M95 -60h-65l396 828h65z" />
    <glyph glyph-name="zero" unicode="0" horiz-adv-x="559" 
d="M280 708c48.667 0 89.165 -9.16699 121.498 -27.5s58.333 -43.666 78 -75.999s33.667 -70.333 42 -114s12.5 -90.5 12.5 -140.5c0 -44 -2.66699 -85.5 -8 -124.5s-15 -73.833 -29 -104.5s-32.833 -56.667 -56.5 -78s-53.834 -36 -90.501 -44l-57 124c18 2 33.5 9 46.5 21
s23.833 28 32.5 48s15 43.333 19 70s6 56 6 88c0 33.333 -2.33301 64 -7 92s-11.667 52 -21 72s-21.5 35.667 -36.5 47s-32.5 17 -52.5 17c-19.333 0 -36.333 -5.66699 -51 -17s-27 -27 -37 -47s-17.5 -44 -22.5 -72s-7.5 -58.667 -7.5 -92s2 -64 6 -92
s10.667 -52.167 20 -72.5s21.5 -36.166 36.5 -47.499s33.5 -17 55.5 -17v-129c-47.333 0 -87.166 9.16699 -119.499 27.5s-58.5 43.666 -78.5 75.999s-34.5 70.333 -43.5 114s-13.5 90.5 -13.5 140.5s4.16699 96.833 12.5 140.5s22.333 81.667 42 114
s45.834 57.666 78.501 75.999s73.334 27.5 122.001 27.5z" />
    <glyph glyph-name="one" unicode="1" horiz-adv-x="387" 
d="M217 700h135v-80l-242 -158l-75 117zM213 0v517l139 18v-535h-139z" />
    <glyph glyph-name="two" unicode="2" horiz-adv-x="554" 
d="M544 0h-508v122h508v-122zM278 567c-24 0 -45.8311 -7.16699 -65.498 -21.5s-33.5 -32.833 -41.5 -55.5l-136 39c8 26 20 49.833 36 71.5s34.667 40.5 56 56.5s44.833 28.5 70.5 37.5s52.5 13.5 80.5 13.5c36.667 0 70.667 -6 102 -18s58.5 -28.5 81.5 -49.5
s41 -45.833 54 -74.5s19.5 -59.667 19.5 -93c0 -27.333 -7.16699 -55.333 -21.5 -84s-33.333 -57.167 -57 -85.5s-50.667 -56.666 -81 -84.999s-61.5 -55.833 -93.5 -82.5l-144 64l48 40l55 46.5l55.5 50.5c18.333 17.333 34.5 34.166 48.5 50.499s25.333 31.833 34 46.5
s13 27.667 13 39c0 15.333 -3.16699 28.833 -9.5 40.5s-14.833 21.5 -25.5 29.5s-22.834 14 -36.501 18s-27.834 6 -42.501 6z" />
    <glyph glyph-name="three" unicode="3" horiz-adv-x="544" 
d="M519 700v-126h-456v126h456zM412 444c32.667 -22 58.667 -50.835 78 -86.502s29 -74.834 29 -117.501c0 -34 -6.5 -66.167 -19.5 -96.5s-30.667 -56.666 -53 -78.999s-48.666 -40 -78.999 -53s-62.5 -19.5 -96.5 -19.5c-27.333 0 -53.5 4.33301 -78.5 13
s-47.833 20.5 -68.5 35.5s-38.667 33 -54 54s-27 43.833 -35 68.5l134 44c2 -10 5.66699 -20.167 11 -30.5s12.166 -19.666 20.499 -27.999s18.333 -15 30 -20s25.167 -7.5 40.5 -7.5c18 0 33.833 3.16699 47.5 9.5s25 14.833 34 25.5s15.667 23.334 20 38.001
s6.5 30 6.5 46c0 30 -10.333 54.833 -31 74.5s-46 29.5 -76 29.5h-70l-1 107l132 112l144 -64z" />
    <glyph glyph-name="four" unicode="4" horiz-adv-x="583" 
d="M342 400h139v-134l-139 70v64zM573 252v-128h-92v-124h-139v124h-317v127l225 449h154l-217 -448h386z" />
    <glyph glyph-name="five" unicode="5" horiz-adv-x="545" 
d="M95 575l17 125h390v-125h-407zM270 469c42 0 78.501 -7.33301 109.501 -22s57 -33.5 78 -56.5s36.667 -48.667 47 -77s15.5 -55.833 15.5 -82.5c0 -33.333 -6.16699 -64.5 -18.5 -93.5s-29.5 -54.167 -51.5 -75.5s-48.333 -38.333 -79 -51s-64.334 -19 -101.001 -19
c-26 0 -51.333 4 -76 12s-47.334 19 -68.001 33s-39 30.667 -55 50s-28 40.666 -36 63.999l132 49c3.33301 -10 7.33301 -19.667 12 -29s11 -17.666 19 -24.999s17.833 -13.333 29.5 -18s25.834 -7 42.501 -7s31.667 3 45 9s24.5 13.667 33.5 23s16 19.833 21 31.5
s7.5 23.167 7.5 34.5v12c0 32.667 -9.5 57 -28.5 73s-43.5 27 -73.5 33s-63.667 8.66699 -101 8s-74.333 -1 -111 -1l21 147l159 70l-10 -92h37z" />
    <glyph glyph-name="six" unicode="6" horiz-adv-x="527" 
d="M323 461c26 -6.66699 49.833 -17.166 71.5 -31.499s40.5 -31.5 56.5 -51.5s28.5 -42.5 37.5 -67.5s13.5 -51.5 13.5 -79.5c0 -32.667 -6.16699 -63.5 -18.5 -92.5s-29.333 -54.333 -51 -76s-47 -38.834 -76 -51.501s-59.833 -19 -92.5 -19s-63.5 6.33301 -92.5 19
s-54.333 29.834 -76 51.501s-38.834 47 -51.501 76s-19 59.833 -19 92.5c0 27.333 4.33301 53.333 13 78s21 46.667 37 66l227 325h174l-288 -405c-8.66699 -9.33301 -15.5 -20 -20.5 -32s-7.5 -24.667 -7.5 -38c0 -14.667 2.66699 -28.167 8 -40.5
s12.833 -23.166 22.5 -32.499s20.834 -16.666 33.501 -21.999s26 -8 40 -8s27.167 2.66699 39.5 8s23.333 12.666 33 21.999s17.167 20.166 22.5 32.499s8 25.833 8 40.5c0 23.333 -7 44.166 -21 62.499s-32 30.833 -54 37.5l31 136v0z" />
    <glyph glyph-name="seven" unicode="7" horiz-adv-x="476" 
d="M10 700h456v-125h-456v125zM26 0l283 563l132 -54l-259 -509h-156z" />
    <glyph glyph-name="eight" unicode="8" horiz-adv-x="534" 
d="M432 387c23.333 -20.667 41.999 -45.167 55.999 -73.5s21 -59.166 21 -92.499c0 -26 -4.33301 -50.667 -13 -74s-20.667 -44.666 -36 -63.999s-33.5 -36 -54.5 -50s-43.833 -24.667 -68.5 -32l-56 121c13.333 1.33301 25.666 4.83301 36.999 10.5s21.333 13 30 22
s15.334 19.167 20.001 30.5s7 23.333 7 36c0 14 -2.83301 27.167 -8.5 39.5s-13.334 23 -23.001 32s-21.167 16.167 -34.5 21.5s-27.333 8 -42 8s-28.5 -2.66699 -41.5 -8s-24.5 -12.5 -34.5 -21.5s-17.833 -19.667 -23.5 -32s-8.5 -25.5 -8.5 -39.5
s2.83301 -27.167 8.5 -39.5s13.5 -23 23.5 -32s21.5 -16 34.5 -21s26.833 -7.5 41.5 -7.5v-129c-33.333 0 -64.666 6 -93.999 18s-55 28.333 -77 49s-39.333 45 -52 73s-19 57.667 -19 89c0 33.333 6.83301 64.166 20.5 92.499s32.167 52.833 55.5 73.5
c-28.667 34 -43 74.667 -43 122c0 27.333 5.5 53.166 16.5 77.499s25.833 45.5 44.5 63.5s40.667 32.167 66 42.5s52.666 15.5 81.999 15.5c28.667 0 55.834 -5.16699 81.501 -15.5s47.834 -24.5 66.501 -42.5s33.5 -39.167 44.5 -63.5s16.5 -50.166 16.5 -77.499
c0 -23.333 -3.83301 -45.333 -11.5 -66s-18.5 -39.334 -32.5 -56.001zM266.999 439c21.333 0 39.5 6.83301 54.5 20.5s22.5 30.167 22.5 49.5s-7.5 35.666 -22.5 48.999s-33.167 20 -54.5 20s-39.5 -6.66699 -54.5 -20s-22.5 -29.666 -22.5 -48.999s7.5 -35.833 22.5 -49.5
s33.167 -20.5 54.5 -20.5z" />
    <glyph glyph-name="nine" unicode="9" horiz-adv-x="514" 
d="M265 708c32.667 0 63.4971 -6.33203 92.4971 -18.999s54.333 -29.834 76 -51.501s38.834 -47.167 51.501 -76.5s19 -60.333 19 -93c0 -27.333 -4.33301 -53.333 -13 -78s-20.667 -47 -36 -67l-229 -323h-172l288 404c8 9.33301 14.333 20 19 32s7 24.667 7 38
c0 14 -2.66699 27.333 -8 40s-12.666 23.834 -21.999 33.501s-20.333 17.167 -33 22.5s-26 8 -40 8c-14.667 0 -28.334 -2.66699 -41.001 -8s-23.667 -12.833 -33 -22.5s-16.666 -20.834 -21.999 -33.501s-8 -26 -8 -40c0 -24 7 -45 21 -63s32.333 -30.333 55 -37l-32 -137
c-26 6.66699 -50 17.167 -72 31.5s-41 31.666 -57 51.999s-28.5 43 -37.5 68s-13.5 51.5 -13.5 79.5c0 32.667 6.33301 63.667 19 93s29.834 54.833 51.501 76.5s47 38.834 76 51.501s60.167 19 93.5 19z" />
    <glyph glyph-name="colon" unicode=":" horiz-adv-x="219" 
d="M111 152c10.667 0 20.667 -2.16699 30 -6.5s17.5 -10.166 24.5 -17.499s12.5 -15.833 16.5 -25.5s6 -19.834 6 -30.501c0 -22 -7.83301 -40.667 -23.5 -56s-34.167 -23 -55.5 -23c-22 0.666992 -40.667 8.83398 -56 24.501s-23 34.5 -23 56.5
c0 21.333 8 39.666 24 54.999s35 23 57 23zM109 349c-22 0.666992 -40.665 8.83203 -55.998 24.499s-23 34.167 -23 55.5c0 22 8 40.667 24 56s35 23 57 23c21.333 0 39.666 -8 54.999 -24s22.666 -35 21.999 -57c0 -21.333 -7.83301 -39.666 -23.5 -54.999
s-34.167 -23 -55.5 -23z" />
    <glyph glyph-name="semicolon" unicode=";" horiz-adv-x="250" 
d="M137 346c-22 0 -40.834 7.83301 -56.501 23.5s-23.167 34.834 -22.5 57.501c0 22.667 7.83301 41.834 23.5 57.501s34.834 23.5 57.501 23.5c22 -0.666992 41 -8.83398 57 -24.501s24 -34.834 24 -57.501c-0.666992 -22.667 -9 -41.667 -25 -57s-35.333 -23 -58 -23z
M70.999 115h135l-90 -234h-86z" />
    <glyph glyph-name="less" unicode="&#x3c;" horiz-adv-x="303" 
d="M72 241l54 67l147 -91v-101zM30 355l243 153v-101l-136 -86v0l-107 -54v88z" />
    <glyph glyph-name="equal" unicode="=" horiz-adv-x="530" 
d="M30 500h470v-85h-470v85zM30 242v86h470v-86h-470z" />
    <glyph glyph-name="greater" unicode="&#x3e;" horiz-adv-x="303" 
d="M231 241l-201 -125v101l147 91zM273 355v-88l-107 54v0l-136 86v101z" />
    <glyph glyph-name="question" unicode="?" horiz-adv-x="555" 
d="M270 152c22 -0.666992 40.667 -8.66699 56 -24s23 -34 23 -56c-0.666992 -22 -8.66699 -40.833 -24 -56.5s-34 -23.167 -56 -22.5c-22 0 -40.667 7.83301 -56 23.5s-23 34.5 -23 56.5s7.83301 40.667 23.5 56s34.5 23 56.5 23zM304 708
c68.667 0 122.665 -18.335 161.998 -55.002s59 -88.334 59 -155.001v-2c0 -29.333 -4.66699 -53.5 -14 -72.5s-21 -35.5 -35 -49.5s-29 -26.5 -45 -37.5s-31 -22.5 -45 -34.5s-25.667 -26.167 -35 -42.5s-14 -36.5 -14 -60.5h-141c-0.666992 2 -1 5.33301 -1 10v2
c0 34.667 5 62.834 15 84.501s22.333 39.667 37 54s30.667 26.333 48 36s33.333 19.834 48 30.501s27 23.334 37 38.001s15 34 15 58c0 18.667 -7.66699 34.167 -23 46.5s-35.166 19.333 -59.499 21s-51.333 -3.33301 -81 -15s-58.5 -31.834 -86.5 -60.501l-115 74
c12 14.667 26.5 29.834 43.5 45.501s36.667 29.667 59 42s47.833 22.5 76.5 30.5s60.334 12 95.001 12z" />
    <glyph glyph-name="at" unicode="@" horiz-adv-x="756" 
d="M378 582c48 0 93.1699 -9.16211 135.503 -27.4951s79.166 -43.166 110.499 -74.499s56.166 -68.166 74.499 -110.499s27.5 -87.5 27.5 -135.5c0 -45.333 -4.33301 -82.333 -13 -111s-19.834 -51 -33.501 -67s-29 -26.833 -46 -32.5s-33.833 -8.5 -50.5 -8.5
c-46.667 0 -81.667 18 -105 54s-35 91.333 -35 166c0 11.333 -2.33301 22.166 -7 32.499s-10.834 19.333 -18.501 27s-16.667 13.834 -27 18.501s-21.5 7 -33.5 7s-23.333 -2.33301 -34 -7s-20 -10.834 -28 -18.501s-14.167 -16.667 -18.5 -27s-6.5 -21.5 -6.5 -33.5
s2.16699 -23.167 6.5 -33.5s10.5 -19.333 18.5 -27s17.333 -13.834 28 -18.501s22 -7 34 -7c11.333 0 22 2.33301 32 7h1v-1l31 -56h-1c-19.333 -15.333 -44.333 -23 -75 -23c-22 0 -42.667 4.16699 -62 12.5s-36.333 19.666 -51 33.999s-26.167 31.166 -34.5 50.499
s-12.5 40 -12.5 62s4.16699 42.667 12.5 62s19.833 36.166 34.5 50.499s31.667 25.666 51 33.999s40 12.5 62 12.5c42.667 0 75.334 -15.333 98.001 -46v46h82c-1.33301 -44 -1.83301 -82.333 -1.5 -115s1.16602 -61.667 2.49902 -87c2 -30 4.83301 -54.5 8.5 -73.5
s8.16699 -33.833 13.5 -44.5s11.5 -18 18.5 -22s14.5 -6 22.5 -6c28.667 0 51.167 11.167 67.5 33.5s27.333 49.666 33 81.999s6.5 66.5 2.5 102.5s-11.667 67.333 -23 94c-12 28.667 -27.833 55 -47.5 79s-42.167 44.333 -67.5 61s-53 29.667 -83 39s-61 14 -93 14
c-44 0 -85.167 -8.33301 -123.5 -25s-71.666 -39.167 -99.999 -67.5s-50.833 -61.666 -67.5 -99.999s-25 -79.5 -25 -123.5s8.33301 -85.167 25 -123.5s39.334 -71.833 68.001 -100.5s62.167 -51.334 100.5 -68.001s79.166 -25 122.499 -25
c21.333 0 44.166 2.16699 68.499 6.5s46.166 10.833 65.499 19.5v-35c-20 -7.33301 -42 -12.833 -66 -16.5s-46.667 -5.5 -68 -5.5c-48 0 -93.167 9.16699 -135.5 27.5s-79.166 43.333 -110.499 75s-56.166 68.5 -74.499 110.5s-27.5 87 -27.5 135s9 93 27 135
s42.833 78.833 74.5 110.5s68.667 56.667 111 75s87.5 27.5 135.5 27.5z" />
    <glyph glyph-name="A" unicode="A" horiz-adv-x="775" 
d="M600 0l-52 124h-320l-53 -124h-150l287 700h151l-185 -451h219l-99 240l113 97l239 -586h-150v0z" />
    <glyph glyph-name="B" unicode="B" horiz-adv-x="661" 
d="M552 377c25.333 -18.667 45.668 -42.499 61.001 -71.499s23 -60.5 23 -94.5c0 -29.333 -5.5 -56.666 -16.5 -81.999s-26 -47.666 -45 -66.999s-41.333 -34.5 -67 -45.5s-52.834 -16.5 -81.501 -16.5h-147l-65 122h214c9.33301 0 18.166 2.5 26.499 7.5
s15.5 11.167 21.5 18.5s10.833 15.666 14.5 24.999s5.5 18.666 5.5 27.999c0 10 -1.83301 19.833 -5.5 29.5s-8.83398 18.167 -15.501 25.5s-14.167 13.333 -22.5 18s-17.166 7 -26.499 7h-251v-281h-140v701h341c28.667 0 55.834 -5.5 81.501 -16.5s48 -26 67 -45
s34 -41.333 45 -67s16.5 -52.834 16.5 -81.501c0 -21.333 -3 -41.5 -9 -60.5s-14.333 -36.833 -25 -53.5zM376.002 420.001c9.33301 0 18.166 2.16602 26.499 6.49902s15.833 10 22.5 17s11.834 15.333 15.501 25s5.5 19.834 5.5 30.501s-1.83301 20.834 -5.5 30.501
s-8.83398 18.167 -15.501 25.5s-14.167 13.166 -22.5 17.499s-17.166 6.5 -26.499 6.5h-201v-159h201z" />
    <glyph glyph-name="C" unicode="C" horiz-adv-x="713" 
d="M688 161c-16 -25.333 -34.833 -48.333 -56.5 -69s-45.5 -38.5 -71.5 -53.5s-54 -26.5 -84 -34.5s-61 -12 -93 -12c-49.333 0 -95.833 9.33301 -139.5 28s-81.667 44.167 -114 76.5s-57.833 70.333 -76.5 114s-28 90.167 -28 139.5s9.33301 95.833 28 139.5
s44.167 81.667 76.5 114s70.333 57.833 114 76.5s90.167 28 139.5 28c32 0 63 -4 93 -12s58 -19.5 84 -34.5s49.833 -32.833 71.5 -53.5s40.5 -43.667 56.5 -69l-117 -75c-18.667 36 -44.334 64.833 -77.001 86.5s-69.667 32.5 -111 32.5c-29.333 0 -57 -6.16699 -83 -18.5
s-48.667 -29 -68 -50s-34.666 -45.667 -45.999 -74s-17 -58.5 -17 -90.5s5.66699 -62.167 17 -90.5s26.666 -53 45.999 -74s42 -37.667 68 -50s53.667 -18.5 83 -18.5c41.333 0 78.333 10.833 111 32.5s58.334 50.5 77.001 86.5z" />
    <glyph glyph-name="D" unicode="D" horiz-adv-x="710" 
d="M335 700c48 0 93.333 -9.16406 136 -27.4971s79.834 -43.333 111.501 -75s56.667 -68.834 75 -111.501s27.5 -88 27.5 -136s-9.16699 -93.333 -27.5 -136s-43.333 -79.834 -75 -111.501s-68.834 -56.667 -111.501 -75s-88 -27.5 -136 -27.5h-58l-66 122h124
c28.667 0 55.834 5.66699 81.501 17s48 27.166 67 47.499s34 44.5 45 72.5s16.5 58.333 16.5 91c0 32 -5.5 62 -16.5 90s-26 52.167 -45 72.5s-41.333 36.333 -67 48s-52.834 17.5 -81.501 17.5h-160v-578h-140v700h300v0z" />
    <glyph glyph-name="E" unicode="E" horiz-adv-x="539" 
d="M421 279h-156l-65 131h221v-131zM504 700l1 -117h-329l-1 -467h329v-116h-469v700h469z" />
    <glyph glyph-name="F" unicode="F" horiz-adv-x="518" 
d="M266 281l-65 130h222v-130h-157zM35 701h473v-118h-332v-583h-141v701z" />
    <glyph glyph-name="G" unicode="G" horiz-adv-x="756" 
d="M727 410c1.33301 -10 2.33301 -20.001 3 -30.001s1 -20 1 -30c0 -49.333 -8.83301 -95.833 -26.5 -139.5s-42 -81.667 -73 -114s-67.833 -57.833 -110.5 -76.5s-88.667 -28 -138 -28s-95.833 9.33301 -139.5 28s-81.667 44.167 -114 76.5s-57.833 70.333 -76.5 114
s-28 90.167 -28 139.5s9.33301 95.833 28 139.5s44.167 81.667 76.5 114s70.333 57.833 114 76.5s90.167 28 139.5 28c64.667 0 123.5 -15.5 176.5 -46.5s95.5 -71.833 127.5 -122.5l-117 -75c-18 36 -43.5 64.833 -76.5 86.5s-69.833 32.5 -110.5 32.5
c-30 0 -58 -6.16699 -84 -18.5s-48.667 -29 -68 -50s-34.666 -45.667 -45.999 -74s-17 -58.5 -17 -90.5s5.66699 -62.167 17 -90.5s26.666 -53 45.999 -74s42 -37.667 68 -50s54 -18.5 84 -18.5c24 0 46.667 4 68 12s40.333 19.333 57 34s31.167 31.834 43.5 51.501
s21.5 41.5 27.5 65.5h-190l-64 130h402v0z" />
    <glyph glyph-name="H" unicode="H" horiz-adv-x="667" 
d="M35 0v700h146v-700h-146zM488 700h144v-700h-144v279h-224l-66 130h290v291z" />
    <glyph glyph-name="I" unicode="I" horiz-adv-x="216" 
d="M35 700h146v-700h-146v700v0z" />
    <glyph glyph-name="J" unicode="J" horiz-adv-x="458" 
d="M428 700v-130h-272l-69 130h341zM287 550l141.001 -77.001v-240c0 -32 -6.16699 -62 -18.5 -90s-29 -52.667 -50 -74s-45.833 -38.166 -74.5 -50.499s-59.334 -18.5 -92.001 -18.5h-158v139h158c13.333 0 25.666 2.5 36.999 7.5s21.333 11.833 30 20.5
s15.334 18.667 20.001 30s7 23.333 7 36v317z" />
    <glyph glyph-name="K" unicode="K" horiz-adv-x="620" 
d="M283 174l57 157l255 -331h-179zM595 700l-414 -537v-163h-146v700h146v-307l235 307h179z" />
    <glyph glyph-name="L" unicode="L" horiz-adv-x="519" 
d="M35 0v700h140v-700h-140zM196 140h308v-140h-230z" />
    <glyph glyph-name="M" unicode="M" horiz-adv-x="717" 
d="M574 700h108v-90l-323 -487l-183 275v-398h-141v700h108l216 -325zM541 0v368l141 97v-465h-141z" />
    <glyph glyph-name="N" unicode="N" horiz-adv-x="667" 
d="M181 700l451 -650v-50h-146l-305 440v-440h-146v700h146zM486 700h146v-524l-146 105v419z" />
    <glyph glyph-name="O" unicode="O" horiz-adv-x="748" 
d="M374 709c49.333 0 95.332 -9.50098 137.999 -28.501s79.667 -44.667 111 -77s55.833 -70.333 73.5 -114s26.5 -90.167 26.5 -139.5c0 -42 -6.33301 -82 -19 -120s-30.667 -72.333 -54 -103s-51.166 -56.834 -83.499 -78.501s-67.833 -37.167 -106.5 -46.5l-70 119
c28 2 53.5 9.5 76.5 22.5s42.833 29.667 59.5 50s29.667 44 39 71s14 55.5 14 85.5c0 31.333 -5.16699 61 -15.5 89s-24.5 52.333 -42.5 73s-39.5 37 -64.5 49s-52.5 18 -82.5 18s-57.5 -6 -82.5 -18s-46.667 -28.333 -65 -49s-32.666 -45 -42.999 -73
s-15.5 -57.667 -15.5 -89s5.16699 -61 15.5 -89s24.666 -52.333 42.999 -73s40 -37 65 -49s52.5 -18 82.5 -18v-130c-49.333 0 -95.333 9.33301 -138 28s-79.667 44.334 -111 77.001s-55.833 70.834 -73.5 114.501s-26.5 90.167 -26.5 139.5s8.83301 95.833 26.5 139.5
s42.167 81.667 73.5 114s68.333 58 111 77s88.667 28.5 138 28.5z" />
    <glyph glyph-name="P" unicode="P" horiz-adv-x="624" 
d="M351 700c34 0 66 -6.50098 96 -19.501s56.333 -30.667 79 -53s40.5 -48.5 53.5 -78.5s19.5 -62 19.5 -96s-6.5 -66 -19.5 -96s-30.833 -56 -53.5 -78s-49 -39.5 -79 -52.5s-62 -19.5 -96 -19.5h-78l-76 140h154c14.667 0 28.5 2.83301 41.5 8.5s24.167 13.667 33.5 24
s16.833 22.666 22.5 36.999s8.5 30.166 8.5 47.499c0 14.667 -2.83301 28.834 -8.5 42.501s-13.167 25.834 -22.5 36.501s-20.5 19.334 -33.5 26.001s-26.833 10 -41.5 10h-177v-579h-139v700h316v0z" />
    <glyph glyph-name="Q" unicode="Q" horiz-adv-x="769" 
d="M374 443l45.5 -45.999l60.5 -61l68.5 -68.5l69.5 -69l64 -63l51 -50.5v-180l-151 151c-30 -20.667 -62.5 -36.667 -97.5 -48s-71.833 -17 -110.5 -17c-50 0 -96.167 9.33301 -138.5 28s-79.166 44.334 -110.499 77.001s-55.833 70.667 -73.5 114s-26.5 90 -26.5 140
c0 49.333 8.83301 95.833 26.5 139.5s42.167 81.667 73.5 114s68.166 57.833 110.499 76.5s88.5 28 138.5 28s96.833 -9.33301 140.5 -28s81.667 -44.167 114 -76.5s58 -70.333 77 -114s28.5 -90.167 28.5 -139.5c0 -18 -1.33301 -35.667 -4 -53s-6.66699 -34 -12 -50
l-144 20c5.33301 13.333 9.33301 26.666 12 39.999s4 27.666 4 42.999c0 31.333 -5.66699 61 -17 89s-26.833 52.333 -46.5 73s-42.5 37 -68.5 49s-54 18 -84 18s-57.5 -6 -82.5 -18s-46.5 -28.333 -64.5 -49s-32.167 -45 -42.5 -73s-15.5 -57.667 -15.5 -89
c0 -32 5.16699 -62 15.5 -90s24.5 -52.5 42.5 -73.5s39.5 -37.5 64.5 -49.5s52.5 -18 82.5 -18c20 0 39.5 3 58.5 9s36.833 14.333 53.5 25l-112 112v178v0z" />
    <glyph glyph-name="R" unicode="R" horiz-adv-x="625" 
d="M615 0h-178l-107 132l117 76zM456 230c-16 -7.33301 -30.832 -12.6689 -44.499 -16.002s-30.334 -5.5 -50.001 -6.5s-44 -1.33301 -73 -1s-66.5 0.5 -112.5 0.5v-207h-141v700h317c34 0 65.833 -6.5 95.5 -19.5s55.667 -30.667 78 -53s40 -48.666 53 -78.999
s19.5 -62.5 19.5 -96.5c0 -50 -13.167 -94.667 -39.5 -134s-60.5 -68.666 -102.5 -87.999zM176.001 346.997l176.001 -0.00195312c30 0 55.333 10.5 76 31.5s31 49.167 31 84.5c0 14.667 -2.83301 28.834 -8.5 42.501s-13.334 25.834 -23.001 36.501s-21 19.167 -34 25.5
s-26.833 9.5 -41.5 9.5h-176v-227v-1v-2z" />
    <glyph glyph-name="S" unicode="S" horiz-adv-x="598" 
d="M352 409c32 -8.66699 61.4951 -18.334 88.4951 -29.001s50.333 -23.667 70 -39s35 -33.666 46 -54.999s16.5 -46.666 16.5 -75.999v-3c0 -32 -6.5 -61.333 -19.5 -88s-31 -49.5 -54 -68.5s-50 -33.667 -81 -44s-64.833 -15.5 -101.5 -15.5
c-34 0 -66.5 4.16699 -97.5 12.5s-59.167 19.333 -84.5 33s-47.5 29.167 -66.5 46.5s-33.5 35.333 -43.5 54l117 74c12.667 -14 25.334 -26.5 38.001 -37.5s26 -20.333 40 -28s29.333 -13.5 46 -17.5s35 -6 55 -6c12.667 0 25.5 1.33301 38.5 4s24.833 7 35.5 13
s19.334 13.5 26.001 22.5s10 20.167 10 33.5c0 9.33301 -2.33301 18.333 -7 27s-12.667 17.167 -24 25.5s-26.666 16.333 -45.999 24s-43.666 15.167 -72.999 22.5c-36 8.66699 -68.333 18.5 -97 29.5s-53 24.333 -73 40s-35.333 34.5 -46 56.5s-16 48 -16 78
c0 32.667 6.16699 62.167 18.5 88.5s29.5 48.5 51.5 66.5s47.833 31.833 77.5 41.5s61.5 14.5 95.5 14.5c35.333 0 67.333 -4 96 -12s54.334 -18.167 77.001 -30.5s42.5 -26.333 59.5 -42s31.167 -30.834 42.5 -45.501l-115 -74c-28.667 27.333 -55.834 46.5 -81.501 57.5
s-52.5 16.5 -80.5 16.5c-17.333 0 -32.166 -2.16699 -44.499 -6.5s-22.5 -9.66602 -30.5 -15.999s-14.167 -13.5 -18.5 -21.5s-6.5 -15.667 -6.5 -23c0 -13.333 3.5 -24.833 10.5 -34.5s17.333 -18.5 31 -26.5s30.667 -15.333 51 -22s43.5 -13.334 69.5 -20.001z" />
    <glyph glyph-name="T" unicode="T" horiz-adv-x="606" 
d="M375 700v0v-700h-144v578h-206v122h350zM396 700h185v-122h-124z" />
    <glyph glyph-name="U" unicode="U" horiz-adv-x="664" 
d="M172 289c0 -24 4.16797 -46.5 12.501 -67.5s19.833 -39.333 34.5 -55s31.834 -28.167 51.501 -37.5s40.5 -14 62.5 -14v-123c-42 0 -81.333 7.83301 -118 23.5s-68.834 37.167 -96.501 64.5s-49.334 59.333 -65.001 96s-23.5 76 -23.5 118v406h142v-406v-2v-3z
M634.001 700l-0.000976562 -406.001c0 -35.333 -5.83301 -68.833 -17.5 -100.5s-27.667 -60.334 -48 -86.001s-44.5 -47.667 -72.5 -66s-58.333 -31.833 -91 -40.5l-62 115c20.667 1.33301 40 6.83301 58 16.5s33.833 22.334 47.5 38.001s24.334 33.667 32.001 54
s11.5 41.833 11.5 64.5c0 0.666992 -0.166992 1.16699 -0.5 1.5s-0.5 0.833008 -0.5 1.5c0 2 0.166992 2.33301 0.5 1s0.5 -0.166016 0.5 3.50098v24v63v120.5v196h142z" />
    <glyph glyph-name="V" unicode="V" horiz-adv-x="746" 
d="M161 700l202 -490l-111 -97l-242 587h151zM585 700h151l-287 -700h-150z" />
    <glyph glyph-name="W" unicode="W" horiz-adv-x="927" 
d="M774 700h143l-171 -700h-183l-100 426l-98 -426h-146l173 700v0h143h1l119 -577zM153 700l112 -459l-110 -139l-145 598h143z" />
    <glyph glyph-name="X" unicode="X" horiz-adv-x="676" 
d="M422 351l244 -351h-171l-157 228l-85 123l-241 349h170l156 -255l155 255h171zM10 0l190 274l126 -64l-146 -210h-170z" />
    <glyph glyph-name="Y" unicode="Y" horiz-adv-x="672" 
d="M179 700l146 -294l-108 -90l-207 384h169zM491 700h171l-254 -468v-232h-146v232l-1 2l74 151z" />
    <glyph glyph-name="Z" unicode="Z" horiz-adv-x="680" 
d="M35 124h604v-124h-604v124zM60 700h585v-137l-406 -419l-124 75l346 357h-401v124z" />
    <glyph glyph-name="bracketleft" unicode="[" horiz-adv-x="276" 
d="M246 -55h-216v808h216v-126h-90v-556h90v-126v0z" />
    <glyph glyph-name="backslash" unicode="\" horiz-adv-x="521" 
d="M426 -60l-396 828h65l396 -828h-65v0z" />
    <glyph glyph-name="bracketright" unicode="]" horiz-adv-x="276" 
d="M30 71h90v556h-90v126h216v-808h-216v126z" />
    <glyph glyph-name="asciicircum" unicode="^" horiz-adv-x="557" 
d="M179 354h-149l172 346h3h147h2l173 -346h-149l-98 226l-101 -226v0z" />
    <glyph glyph-name="underscore" unicode="_" horiz-adv-x="446" 
d="M416 -142h-386v70h386v-70v0z" />
    <glyph glyph-name="grave" unicode="`" horiz-adv-x="228" 
d="M198 593h-100l-68 106h124l44 -106v0z" />
    <glyph glyph-name="a" unicode="a" horiz-adv-x="607" 
d="M567 500l-0.000976562 -499.996h-131v250c0 19.333 -3.66699 37.333 -11 54s-17.5 31.334 -30.5 44.001s-28 22.5 -45 29.5s-34.833 10.5 -53.5 10.5c-19.333 0 -37.333 -3.66699 -54 -11s-31.5 -17.166 -44.5 -29.499s-23.167 -27 -30.5 -44s-11 -35.167 -11 -54.5
c0 -18.667 3.66699 -36.334 11 -53.001s17.5 -31.334 30.5 -44.001s27.833 -22.667 44.5 -30s34.667 -11 54 -11c20.667 0 38.334 3.66699 53.001 11h1v-2l50 -89l-1 -1c-32.667 -25.333 -73 -38 -121 -38c-35.333 0 -68.666 6.66699 -99.999 20
s-58.666 31.666 -81.999 54.999s-41.833 50.666 -55.5 81.999s-20.5 64.666 -20.5 99.999c0 36 6.83301 69.667 20.5 101s32.167 58.666 55.5 81.999s50.666 41.833 81.999 55.5s64.666 20.5 99.999 20.5c34.667 0 65 -6.5 91 -19.5s48.333 -31.833 67 -56.5v68h131z" />
    <glyph glyph-name="b" unicode="b" horiz-adv-x="597" 
d="M319 506c35.333 0 68.667 -6.67383 100 -20.0068s58.666 -31.666 81.999 -54.999s41.833 -50.666 55.5 -81.999s20.5 -64.666 20.5 -99.999s-6.83301 -68.666 -20.5 -99.999s-32.167 -58.666 -55.5 -81.999s-50.666 -41.666 -81.999 -54.999s-64.666 -20 -99.999 -20
c-68.667 0 -121 25.333 -157 76v-68h-132v700h133v-451c0 -19.333 3.66699 -37.333 11 -54s17.166 -31.167 29.499 -43.5s27 -22.166 44 -29.499s35.167 -11 54.5 -11c18.667 0 36.5 3.66699 53.5 11s31.667 17.166 44 29.499s22.166 26.833 29.499 43.5s11 34.667 11 54
s-3.66699 37.333 -11 54s-17.166 31.334 -29.499 44.001s-27 22.5 -44 29.5s-34.833 10.5 -53.5 10.5c-18 0 -36 -3.66699 -54 -11l-1 -1l-1 2l-49 90l1 1c32.667 25.333 73 38 121 38z" />
    <glyph glyph-name="c" unicode="c" horiz-adv-x="513" 
d="M395 191l108 -70.9971l-1 -1c-23.333 -40 -54.833 -71.333 -94.5 -94s-82.5 -34 -128.5 -34c-36 0 -69.667 6.83301 -101 20.5s-58.666 32.167 -81.999 55.5s-41.833 50.666 -55.5 81.999s-20.5 64.666 -20.5 99.999s6.83301 68.666 20.5 99.999
s32.167 58.666 55.5 81.999s50.666 41.833 81.999 55.5s65 20.5 101 20.5c46 0 88.833 -11.333 128.5 -34s71.167 -54 94.5 -94l1 -1l-109 -71l-1 1c-10.667 24.667 -26.167 44.667 -46.5 60s-42.833 23 -67.5 23c-18 0 -34.833 -3.83301 -50.5 -11.5s-29.167 -18 -40.5 -31
s-20.333 -28 -27 -45s-10 -35.167 -10 -54.5s3.33301 -37.333 10 -54s15.667 -31.167 27 -43.5s24.833 -22 40.5 -29s32.5 -10.5 50.5 -10.5c24.667 0 47.167 6.83301 67.5 20.5s35.833 32.834 46.5 57.501l1 2z" />
    <glyph glyph-name="d" unicode="d" horiz-adv-x="597" 
d="M567 700l0.000976562 -699.995h-133l1 251c0 18.667 -3.83301 36.334 -11.5 53.001s-17.667 31.167 -30 43.5s-27 22 -44 29s-35.167 10.5 -54.5 10.5s-37.333 -3.5 -54 -10.5s-31.167 -16.833 -43.5 -29.5s-22.166 -27.334 -29.499 -44.001s-11 -34.667 -11 -54
s3.66699 -37.333 11 -54s17.166 -31.167 29.499 -43.5s26.833 -22.166 43.5 -29.499s34.667 -11 54 -11c9.33301 0 18.666 0.666992 27.999 2s18 4 26 8h1h1l49 -90l-1 -1c-32.667 -25.333 -72.667 -38 -120 -38c-36 0 -69.667 6.66699 -101 20
s-58.666 31.666 -81.999 54.999s-41.833 50.666 -55.5 81.999s-20.5 64.666 -20.5 99.999s6.83301 68.666 20.5 99.999s32.167 58.666 55.5 81.999s50.666 41.666 81.999 54.999s65 20 101 20c68 0 120 -25.333 156 -76v270h132z" />
    <glyph glyph-name="e" unicode="e" 
d="M280 508c35.333 0 68.6689 -6.83301 100.002 -20.5s58.666 -32.167 81.999 -55.5s41.833 -50.666 55.5 -81.999s20.5 -65 20.5 -101c0 -19.333 -2 -38 -6 -56l-1 -2h-254l-64 102h190c-9.33301 28 -24.833 51 -46.5 69s-47.167 27 -76.5 27c-18 0 -35 -3.66699 -51 -11
s-29.833 -17.166 -41.5 -29.499s-20.834 -27 -27.501 -44s-10 -35.5 -10 -55.5c0 -15.333 3 -31.166 9 -47.499s14.667 -31.166 26 -44.499s25 -24.5 41 -33.5s34 -13.5 54 -13.5c18 0 34.5 2.5 49.5 7.5s29.167 16.167 42.5 33.5l1 1l2 -1l116 -51l-2 -2
c-24 -33.333 -54.5 -59.333 -91.5 -78s-76.167 -28 -117.5 -28c-36 0 -69.833 6.66699 -101.5 20s-59.167 31.666 -82.5 54.999s-41.833 50.666 -55.5 81.999s-20.5 64.666 -20.5 99.999c0 36 6.83301 69.667 20.5 101s32.167 58.666 55.5 81.999s50.833 41.833 82.5 55.5
s65.5 20.5 101.5 20.5z" />
    <glyph glyph-name="f" unicode="f" horiz-adv-x="408" 
d="M241 414h147v-111h-85h-1zM388 700l-0.000976562 -117.001h-109c-17.333 0 -30.666 -6.66699 -39.999 -20s-14 -31.666 -14 -54.999v-508h-133v303h-72v111h72v100c0 25.333 4.83301 49.333 14.5 72s23 42.5 40 59.5s36.833 30.333 59.5 40s47 14.5 73 14.5h109z" />
    <glyph glyph-name="g" unicode="g" horiz-adv-x="602" 
d="M572 500l0.000976562 -442.998c-2 -37.333 -10.333 -72.166 -25 -104.499s-34.167 -60.333 -58.5 -84s-52.833 -42.334 -85.5 -56.001s-67.334 -20.5 -104.001 -20.5c-49.333 0 -95.166 12.167 -137.499 36.5s-75.833 57.5 -100.5 99.5l-1 2l1 1l110 48
c6.66699 -12 15.167 -22.5 25.5 -31.5s21.333 -16.333 33 -22s23.667 -10 36 -13s24.166 -4.5 35.499 -4.5c17.333 0 34.333 3.66699 51 11s31.5 18 44.5 32s23.333 30.667 31 50s11.5 41 11.5 65v183c0 19.333 -3.83301 37.5 -11.5 54.5s-18 31.667 -31 44
s-28 22.166 -45 29.499s-35.167 11 -54.5 11s-37.5 -3.66699 -54.5 -11s-31.833 -17.166 -44.5 -29.499s-22.667 -27 -30 -44s-11 -35.167 -11 -54.5s3.66699 -37.333 11 -54s17.333 -31.334 30 -44.001s27.5 -22.667 44.5 -30s35.167 -11 54.5 -11
c20.667 0 38.667 3.66699 54 11h1l1 -1l50 -89l-1 -1c-32.667 -26.667 -73 -40 -121 -40c-36 0 -70 6.83301 -102 20.5s-59.667 32.167 -83 55.5s-41.833 50.833 -55.5 82.5s-20.5 65.167 -20.5 100.5c0 36 6.83301 69.667 20.5 101s32.167 58.666 55.5 81.999
s51 41.833 83 55.5s66 20.5 102 20.5c68 0 120.667 -25.667 158 -77v69h133z" />
    <glyph glyph-name="h" unicode="h" horiz-adv-x="575" 
d="M41 700h134l-1 -700h-134zM500 440c30 -40 45.002 -103.334 45.002 -190.001v-250h-134v250c0 18 -0.5 35.333 -1.5 52s-4.5 31.334 -10.5 44.001s-15.667 22.667 -29 30s-32.333 11 -57 11c-19.333 0 -40.333 -5.33301 -63 -16l-1 -1l-1 2l-48 86l1 1
c17.333 15.333 36.666 26.833 57.999 34.5s44.666 11.5 69.999 11.5c80.667 0 137.667 -21.667 171 -65z" />
    <glyph glyph-name="i" unicode="i" horiz-adv-x="193" 
d="M30 0v500h133v-500h-133zM30 700h133v-117h-133v117z" />
    <glyph glyph-name="j" unicode="j" horiz-adv-x="332" 
d="M302 700v-117h-131v117h131zM170 500h132.001v-544c0 -26 -4.83301 -50.333 -14.5 -73s-23 -42.5 -40 -59.5s-36.833 -30.333 -59.5 -40s-46.667 -14.5 -72 -14.5h-44v1l-72 130h116c15.333 0 28.166 5.5 38.499 16.5s15.5 24.167 15.5 39.5v544z" />
    <glyph glyph-name="k" unicode="k" horiz-adv-x="562" 
d="M539 500l-171 -170l-206 -206v-124h-132v700h132v-403l212 203h165zM299 235l74.5 -74l46.5 -46l28.5 -28.5l21.5 -21l25.5 -25.5l40.5 -40h-164l-1 1l-108 108z" />
    <glyph glyph-name="l" unicode="l" horiz-adv-x="193" 
d="M31 700h132v-700h-133l1 700v0z" />
    <glyph glyph-name="m" unicode="m" horiz-adv-x="772" 
d="M30 500h133v-500h-133v500zM572 508c31.333 0 57.832 -6.16406 79.499 -18.4971s39.167 -28.5 52.5 -48.5s23 -42.5 29 -67.5s9 -50.167 9 -75.5v-298h-133l1 298c0 10.667 -2 20.667 -6 30s-9.5 17.666 -16.5 24.999s-15.333 13.166 -25 17.499s-19.834 6.5 -30.501 6.5
c-22 0 -40.667 -7.83301 -56 -23.5s-23 -34.167 -23 -55.5v-298h-133v298c0 10.667 -2 20.667 -6 30s-9.66699 17.666 -17 24.999s-15.833 13 -25.5 17s-20.5 6 -32.5 6c-0.666992 0 -3.66699 5 -9 15l-18 33c-7.33301 14 -16.333 30 -27 48l1 2
c28.667 22.667 60.334 34 95.001 34c37.333 0 67.666 -8.33301 90.999 -25s41.333 -37.334 54 -62.001c2.66699 4.66699 5.33398 8.66699 8.00098 12c18.667 24.667 39.834 43.334 63.501 56.001s48.5 19 74.5 19z" />
    <glyph glyph-name="n" unicode="n" horiz-adv-x="564" 
d="M30 500h136v-500h-136v500zM492 442c16.667 -20.667 28.667 -46.667 36 -78s11 -70 11 -116v-248h-136v248c0 18.667 -0.5 36.5 -1.5 53.5s-4.5 32 -10.5 45s-15.667 23.167 -29 30.5s-32.333 11 -57 11c-23.333 0 -45 -5 -65 -15v-1l-1 1l-49 87l1 1
c34.667 31.333 78 47 130 47c80 0 137 -22 171 -66z" />
    <glyph glyph-name="o" unicode="o" 
d="M279 508c36 0 69.667 -6.83301 101 -20.5s58.666 -32.167 81.999 -55.5s41.833 -50.666 55.5 -81.999s20.5 -64.666 20.5 -99.999s-6.83301 -68.666 -20.5 -99.999s-32.167 -58.666 -55.5 -81.999s-50.666 -41.833 -81.999 -55.5s-65 -20.5 -101 -20.5
s-69.667 6.83301 -101 20.5s-58.666 32.167 -81.999 55.5s-41.833 50.666 -55.5 81.999s-20.5 64.666 -20.5 99.999s6.83301 68.666 20.5 99.999s32.167 58.666 55.5 81.999s50.666 41.833 81.999 55.5s65 20.5 101 20.5zM279 111c16.667 0 32.167 3.66699 46.5 11
s27 17.5 38 30.5s19.667 28 26 45s9.5 35.5 9.5 55.5c0 18.667 -3.16699 36.5 -9.5 53.5s-15 31.667 -26 44s-23.667 22.166 -38 29.499s-29.833 11 -46.5 11s-32.334 -3.66699 -47.001 -11s-27.5 -17.166 -38.5 -29.499s-19.667 -27 -26 -44s-9.5 -34.833 -9.5 -53.5
c0 -20 3.16699 -38.5 9.5 -55.5s15 -32 26 -45s23.833 -23.167 38.5 -30.5s30.334 -11 47.001 -11z" />
    <glyph glyph-name="p" unicode="p" horiz-adv-x="605" 
d="M323 508c36 0 70 -6.83105 102 -20.498s59.833 -32.334 83.5 -56.001s42.334 -51.167 56.001 -82.5s20.5 -65 20.5 -101c0 -36.667 -6.83301 -71 -20.5 -103s-32.334 -59.833 -56.001 -83.5s-51.5 -42.334 -83.5 -56.001s-66 -20.5 -102 -20.5
c-49.333 0 -90.333 13.333 -123 40v1l50 92l1 -1c18 -8 36.333 -12 55 -12c19.333 0 37.666 3.66699 54.999 11s32.5 17.5 45.5 30.5s23.167 28.167 30.5 45.5s11 36 11 56c0 19.333 -3.66699 37.5 -11 54.5s-17.5 31.833 -30.5 44.5s-28.167 22.667 -45.5 30
s-35.666 11 -54.999 11c-20 0 -38.5 -3.66699 -55.5 -11s-31.833 -17.333 -44.5 -30s-22.667 -27.5 -30 -44.5s-11 -35.167 -11 -54.5v-448h-135v700h135v-68c36 50.667 88.667 76 158 76z" />
    <glyph glyph-name="q" unicode="q" horiz-adv-x="606" 
d="M576 500v-700.002h-135v261v187c0 19.333 -3.66699 37.5 -11 54.5s-17.333 31.833 -30 44.5s-27.5 22.667 -44.5 30s-35.5 11 -55.5 11c-19.333 0 -37.666 -3.66699 -54.999 -11s-32.5 -17.333 -45.5 -30s-23.167 -27.5 -30.5 -44.5s-11 -35.167 -11 -54.5
c0 -20 3.66699 -38.667 11 -56s17.5 -32.5 30.5 -45.5s28.167 -23.167 45.5 -30.5s35.666 -11 54.999 -11c17.333 0 35.333 3.66699 54 11l1 1v-1l52 -91l-1 -1c-34 -26 -75.333 -39 -124 -39c-36 0 -69.833 6.83301 -101.5 20.5s-59.5 32.334 -83.5 56.001
s-42.833 51.5 -56.5 83.5s-20.5 66.333 -20.5 103c0 36 6.83301 69.667 20.5 101s32.5 58.833 56.5 82.5s51.833 42.334 83.5 56.001s65.5 20.5 101.5 20.5c34.667 0 65.5 -6.33301 92.5 -19s49.167 -31.667 66.5 -57v68h135z" />
    <glyph glyph-name="r" unicode="r" horiz-adv-x="448" 
d="M438 480l-12.001 -20l-51 -91l-1 1c-22 12.667 -45.667 19 -71 19c-17.333 0 -33.666 -2.83301 -48.999 -8.5s-29 -13.667 -41 -24s-22.167 -22.5 -30.5 -36.5s-13.833 -29 -16.5 -45v-275h-136v500h136v-65c35.333 48.667 87 73 155 73c40 0 78.667 -9.33301 116 -28h1z
" />
    <glyph glyph-name="s" unicode="s" horiz-adv-x="448" 
d="M276 297c22 -7.33301 42.1689 -14.8242 60.502 -22.4912s34.333 -16.834 48 -27.501s24.334 -23.5 32.001 -38.5s11.5 -32.833 11.5 -53.5v-1c0 -50.667 -16.833 -90.334 -50.5 -119.001s-80.834 -43 -141.501 -43c-38 0 -75.333 6.5 -112 19.5s-71 31.5 -103 55.5l-1 1
l1 1l68 107l1 -1c20 -21.333 42.667 -37.5 68 -48.5s52.333 -16.5 81 -16.5c39.333 0 59 12.667 59 38c0 12 -6.33301 21 -19 27s-27.667 11.667 -45 17c-3.33301 1.33301 -6.5 2.16602 -9.5 2.49902s-6.16699 1.16602 -9.5 2.49902c-20 5.33301 -40 11.166 -60 17.499
s-38 15 -54 26s-29.167 25 -39.5 42s-15.5 38.833 -15.5 65.5v2c0 23.333 4.33301 44.666 13 63.999s21 36 37 50s35.333 24.833 58 32.5s47.667 11.5 75 11.5c32 0 64.333 -4.83301 97 -14.5s63 -23.834 91 -42.501v-2l-61 -111l-1 1c-15.333 15.333 -34.333 27.5 -57 36.5
s-46.667 13.5 -72 13.5c-4.66699 0 -10 -0.333008 -16 -1s-11.5 -2.33398 -16.5 -5.00098s-9.16699 -6.16699 -12.5 -10.5s-5 -10.5 -5 -18.5c0 -6 2.66699 -11.5 8 -16.5s12.166 -9.66699 20.499 -14s17.666 -8.5 27.999 -12.5s20.5 -7.66699 30.5 -11
c2 0 4.16699 -0.333008 6.5 -1s4.5 -1.33398 6.5 -2.00098z" />
    <glyph glyph-name="t" unicode="t" horiz-adv-x="398" 
d="M378 448v-111h-74l-62 111h136zM225 171c0 -15.333 5.5 -28.333 16.5 -39s24.167 -16 39.5 -16h97v-116h-97c-26 -0 -50.5 4.83301 -73.5 14.5s-43 23 -60 40s-30.5 36.833 -40.5 59.5s-15 47 -15 73v150h-72v111h72v181h133v-458z" />
    <glyph glyph-name="u" unicode="u" horiz-adv-x="566" 
d="M536 500v-503h-137v503h137zM326 126l48.001 -86.9971v-1c-34.667 -30.667 -77.667 -46 -129 -46c-81.333 0 -139 22 -173 66c-31.333 39.333 -47 102 -47 188v254h137v-254c0 -18 0.5 -35.333 1.5 -52s4.66699 -31.334 11 -44.001s16.166 -22.834 29.499 -30.501
s32.333 -11.5 57 -11.5c11.333 0 22.333 1.66699 33 5s20.667 7.66602 30 12.999h2z" />
    <glyph glyph-name="v" unicode="v" horiz-adv-x="579" 
d="M153 499l129 -362l-88 -91l-184 454h143v-1zM427 500h142l-205 -500h-116l41 115z" />
    <glyph glyph-name="w" unicode="w" horiz-adv-x="738" 
d="M590 500h138l-1 -1l-134 -499h-159l-65 296l-67 -296h-103v2l100 498h1h137v0l76 -379zM149 499l69 -352l-88 -91l-1 2l-119 442h139v-1z" />
    <glyph glyph-name="x" unicode="x" horiz-adv-x="550" 
d="M10 0l134 182l122 -56l-93 -126h-163zM356 248l184 -248h-164v1l-182 246l-183 253h162l101 -170l102 170h164l-2 -1z" />
    <glyph glyph-name="y" unicode="y" horiz-adv-x="578" 
d="M185 68l-175 432h143v-1l129 -363zM568 500l-1.00195 -2.00098l-33 -89.5l-30 -81.5c-33.333 -93.333 -63.166 -173.5 -89.499 -240.5s-54.5 -121.5 -84.5 -163.5c-30 -43.333 -63.833 -74.666 -101.5 -93.999s-84.834 -29 -141.501 -29h-2v136h2
c17.333 0 32.833 0.666992 46.5 2s26.167 4.16602 37.5 8.49902s21.833 10.333 31.5 18s18.834 17.834 27.501 30.501c8.66699 12 17.334 26.667 26.001 44s17.667 38 27 62l31 83.5l38 107.5l34 96l39 111v1h143z" />
    <glyph glyph-name="z" unicode="z" horiz-adv-x="554" 
d="M21 118h498v-118h-499zM534 500v-130l-1 1l-284 -238l-143 61l235 198h-306v108h499z" />
    <glyph glyph-name="braceleft" unicode="{" horiz-adv-x="343" 
d="M236 472c0 -24 -4.16699 -46.667 -12.5 -68s-19.5 -40.333 -33.5 -57c14 -16 25.167 -34.833 33.5 -56.5s12.5 -44.5 12.5 -68.5v-79c0 -21.333 7.66699 -39.666 23 -54.999s33.333 -23 54 -23v-125c-28 0 -54.167 5.33301 -78.5 16s-45.666 25.167 -63.999 43.5
s-32.833 39.833 -43.5 64.5s-16 51 -16 79v79c0 16.667 -6.16699 31 -18.5 43s-27.166 18 -44.499 18h-18v128h18c17.333 0 32.166 5.83301 44.499 17.5s18.5 26.167 18.5 43.5v78c0 28 5.33301 54.5 16 79.5s25.167 46.667 43.5 65s39.666 32.833 63.999 43.5
s50.5 16 78.5 16v-126c-10 0 -19.667 -2 -29 -6s-17.5 -9.5 -24.5 -16.5s-12.667 -15.333 -17 -25s-6.5 -19.834 -6.5 -30.501v-78z" />
    <glyph glyph-name="bar" unicode="|" horiz-adv-x="166" 
d="M30 -70v835h106v-835h-106v0z" />
    <glyph glyph-name="braceright" unicode="}" horiz-adv-x="343" 
d="M107 550c0 10.667 -2.16699 20.834 -6.5 30.501s-10 18 -17 25s-15.167 12.5 -24.5 16.5s-19 6 -29 6v126c28 0 54.167 -5.33301 78.5 -16s45.666 -25.167 63.999 -43.5s32.833 -40 43.5 -65s16 -51.5 16 -79.5v-78c0 -17.333 6.16699 -31.833 18.5 -43.5
s27.166 -17.5 44.499 -17.5h18v-128h-18c-17.333 0 -32.166 -6 -44.499 -18s-18.5 -26.333 -18.5 -43v-79c0 -28 -5.33301 -54.333 -16 -79s-25.167 -46.167 -43.5 -64.5s-39.666 -32.833 -63.999 -43.5s-50.5 -16 -78.5 -16v125c20.667 0 38.667 7.66699 54 23
s23 33.666 23 54.999v79c0 24 4.16699 46.833 12.5 68.5s19.5 40.5 33.5 56.5c-14 16.667 -25.167 35.667 -33.5 57s-12.5 44 -12.5 68v78z" />
    <glyph glyph-name="asciitilde" unicode="~" horiz-adv-x="572" 
d="M416 276c-26 0 -51.6689 5.49805 -77.002 16.498s-48.333 21.833 -69 32.5c-24 12.667 -43.667 22.334 -59 29.001s-28.166 10.5 -38.499 11.5s-18.833 -1 -25.5 -6s-12.667 -12.5 -18 -22.5l-21 -38l-78 43l22 39c16.667 30.667 36.167 51 58.5 61
s45.5 13.833 69.5 11.5s47.333 -8.66602 70 -18.999s43 -20.166 61 -29.499c22.667 -12 41.334 -21.333 56.001 -28s26.834 -10.667 36.501 -12s17.5 -0.333008 23.5 3s11.667 8.66602 17 15.999l25 37l73 -50l-25 -37c-14.667 -21.333 -30.334 -36.333 -47.001 -45
s-34.667 -13 -54 -13z" />
    <glyph glyph-name="exclamdown" unicode="&#xa1;" horiz-adv-x="204" 
d="M102 370c-19.333 0 -35.6641 6.83301 -48.9971 20.5s-19.666 30.167 -18.999 49.5c0 9.33301 1.83301 18.166 5.5 26.499s8.66699 15.666 15 21.999s13.666 11.166 21.999 14.499s17.5 5 27.5 5c9.33301 0 18.166 -1.83301 26.499 -5.5s15.666 -8.66699 21.999 -15
s11.166 -13.666 14.499 -21.999s5 -17.5 5 -27.5c0 -19.333 -6.83301 -35.666 -20.5 -48.999s-30.167 -19.666 -49.5 -18.999zM174.002 153v-262h-144v262l35 176h74z" />
    <glyph glyph-name="cent" unicode="&#xa2;" horiz-adv-x="540" 
d="M403 284l107 -69.9961l-1 -1c-23.333 -39.333 -54.666 -70.333 -93.999 -93s-81.666 -34 -126.999 -34c-34 0 -67 6.66699 -99 20l-34 -73h-65l48 101c-32.667 23.333 -58.834 53.166 -78.501 89.499s-29.5 76.166 -29.5 119.499c0 34.667 6.66699 67.5 20 98.5
s31.666 58.167 54.999 81.5s50.666 41.666 81.999 54.999s65 20 101 20c23.333 0 46 -3 68 -9l39 82h64l-49 -105c41.333 -22 74.333 -53.333 99 -94l1 -1l-108 -71l-1 1c-5.33301 11.333 -11.666 21.666 -18.999 30.999s-15.666 17.666 -24.999 24.999l-116 -242
c14.667 -6 30.334 -9 47.001 -9c23.333 0 45.166 6.83301 65.499 20.5s36.166 32.834 47.499 57.501l1 1zM160 343.004c0 -36.667 11.333 -68 34 -94l110 232c-3.33301 0.666992 -6.33301 1 -9 1h-7c-18 0 -34.833 -3.66699 -50.5 -11s-29.167 -17.333 -40.5 -30
s-20.333 -27.5 -27 -44.5s-10 -34.833 -10 -53.5z" />
    <glyph glyph-name="sterling" unicode="&#xa3;" horiz-adv-x="693" 
d="M663 121l-0.00292969 -121.001h-402h-140h-91v121h91v147h-63v122h63v121c2 30.667 9.5 58.167 22.5 82.5s30.167 44.833 51.5 61.5s46.333 29.5 75 38.5s59.667 13.5 93 13.5c34.667 0 66.334 -3.83301 95.001 -11.5s54.334 -17.667 77.001 -30
s42.5 -26.166 59.5 -41.499s31.167 -30.333 42.5 -45l-115 -76c-28 27.333 -54.833 46.666 -80.5 57.999s-52.5 17 -80.5 17c-17.333 0 -32.166 -2.16699 -44.499 -6.5s-22.5 -9.66602 -30.5 -15.999s-14 -13.5 -18 -21.5s-6 -15.667 -6 -23h-1v-121h242v-122h-242v-147h402
z" />
    <glyph glyph-name="currency" unicode="&#xa4;" horiz-adv-x="494" 
d="M460 373c0 -28 -4.66309 -53.833 -13.9961 -77.5s-22.666 -45.167 -39.999 -64.5l58 -58l-24 -24l-58 60c-18.667 -15.333 -39.334 -27.333 -62.001 -36s-47.334 -13 -74.001 -13c-24.667 0 -48.667 4.33301 -72 13s-44 20.667 -62 36l-60 -60l-22 24l58 58
c-16.667 19.333 -29.834 40.833 -39.501 64.5s-14.5 49.5 -14.5 77.5c0 25.333 4.16699 49.5 12.5 72.5s20.166 43.5 35.499 61.5l-52 54l22 23l54 -53c18.667 16.667 40 29.667 64 39s49.333 14 76 14c28 0 54 -4.66699 78 -14s45.333 -22.333 64 -39l52 53l24 -23l-52 -54
c15.333 -18 27.166 -38.5 35.499 -61.5s12.5 -47.167 12.5 -72.5zM246.004 257c14 0 27 3 39 9s22.5 14.333 31.5 25s16.167 23.167 21.5 37.5s8 29.833 8 46.5c0 16 -2.66699 30.833 -8 44.5s-12.5 25.5 -21.5 35.5s-19.5 18 -31.5 24s-25 9 -39 9c-13.333 0 -26 -3 -38 -9
s-22.5 -14 -31.5 -24s-16 -21.833 -21 -35.5s-7.5 -28.5 -7.5 -44.5c0 -16.667 2.5 -32.167 7.5 -46.5s12 -26.833 21 -37.5s19.5 -19 31.5 -25s24.667 -9 38 -9z" />
    <glyph glyph-name="yen" unicode="&#xa5;" horiz-adv-x="664" 
d="M327 418l-96 -87l-201 369h158zM634 700l-234 -432h135v-60h-136v-41h136v-58h-136v-109h-135v109h-135v58h135v41h-135v60h135v1l68 138l144 293h158z" />
    <glyph glyph-name="brokenbar" unicode="&#xa6;" horiz-adv-x="167" 
d="M30 776h107v-308h-107v308zM30 -67v308h107v-308h-107z" />
    <glyph glyph-name="section" unicode="&#xa7;" horiz-adv-x="464" 
d="M439 348c0 -21.333 -3.16699 -40.5 -9.5 -57.5s-15.166 -32.5 -26.499 -46.5c11.333 -10.667 20.166 -22.667 26.499 -36s9.5 -29.666 9.5 -48.999v-1c0 -52 -17.167 -92.5 -51.5 -121.5s-82.166 -43.5 -143.499 -43.5c-38.667 0 -76.667 6.66699 -114 20
s-72 32.333 -104 57h-1v1l70 109v-1c42.667 -44.667 93.667 -67 153 -67c39.333 0 59 12.667 59 38c0 13.333 -6.33301 23 -19 29s-27.667 11.667 -45 17c-3.33301 1.33301 -6.83301 2.33301 -10.5 3s-7.5 1.66699 -11.5 3c-20 4.66699 -40.167 10.334 -60.5 17.001
s-38.5 15.5 -54.5 26.5s-29.167 25 -39.5 42s-15.5 38.833 -15.5 65.5v3c0 38 11.333 71 34 99c-10.667 11.333 -19 24 -25 38s-9 31.333 -9 52v1c0 24 4.5 46 13.5 66s21.667 37.167 38 51.5s35.833 25.333 58.5 33s48 11.5 76 11.5c32 0 64.5 -5 97.5 -15
s63.833 -24.667 92.5 -44v-1l-61 -113l-2 1c-15.333 16.667 -34.5 29.5 -57.5 38.5s-47.167 13.5 -72.5 13.5c-4.66699 0 -10 -0.333008 -16 -1s-11.5 -2.33398 -16.5 -5.00098s-9.33301 -6.16699 -13 -10.5s-5.5 -10.5 -5.5 -18.5c0 -6.66699 2.66699 -12.5 8 -17.5
s12.166 -9.83301 20.499 -14.5s17.833 -8.83398 28.5 -12.501l32 -11.5c2 -0.666992 4.16699 -1.16699 6.5 -1.5s4.5 -1.16602 6.5 -2.49902c22 -7.33301 42.333 -14.833 61 -22.5s35 -16.834 49 -27.501s24.833 -23.5 32.5 -38.5s11.5 -32.833 11.5 -53.5v-3zM183 360
c0 -6 2.66895 -11.5 8.00195 -16.5s12.166 -9.66699 20.499 -14s17.666 -8.5 27.999 -12.5s20.833 -7.66699 31.5 -11c24 4 36 16.333 36 37c0 12 -6.33301 21.167 -19 27.5s-27.667 11.833 -45 16.5c-3.33301 1.33301 -6.83301 2.33301 -10.5 3s-7.5 1.66699 -11.5 3
c-0.666992 0.666992 -2 1 -4 1c-8.66699 -1.33301 -16.5 -4.5 -23.5 -9.5s-10.5 -13.167 -10.5 -24.5z" />
    <glyph glyph-name="dieresis" unicode="&#xa8;" horiz-adv-x="488" 
d="M178 634c-0.666992 -20 -8.16699 -37.333 -22.5 -52s-31.833 -22 -52.5 -22c-19.333 0 -36.333 7.33301 -51 22s-22 32 -22 52c0.666992 20 8.16699 37.333 22.5 52s31.5 21.667 51.5 21c20 0 37.333 -7.16699 52 -21.5s22 -31.5 22 -51.5zM458 634
c0 -20 -7.33398 -37.333 -22.001 -52s-32 -22 -52 -22c-20.667 0 -38.167 7.33301 -52.5 22s-21.5 32 -21.5 52s7.33301 37.333 22 52s32.334 21.667 53.001 21c20 0 37.167 -7.16699 51.5 -21.5s21.5 -31.5 21.5 -51.5z" />
    <glyph glyph-name="copyright" unicode="&#xa9;" horiz-adv-x="777" 
d="M385 457c-14 0 -27.167 -2.83398 -39.5 -8.50098s-23 -13.5 -32 -23.5s-16 -21.667 -21 -35s-7.5 -27.333 -7.5 -42c0 -15.333 2.5 -29.5 7.5 -42.5s12 -24.167 21 -33.5s19.667 -16.833 32 -22.5s25.5 -8.5 39.5 -8.5c18.667 0 35.834 5.5 51.501 16.5
s27.834 25.833 36.501 44.5l1 1v-1l85 -54l-1 -1c-18 -31.333 -42.333 -55.666 -73 -72.999s-64 -26 -100 -26c-28 0 -54.167 5.16699 -78.5 15.5s-45.5 24.5 -63.5 42.5s-32.333 39.167 -43 63.5s-16 50.5 -16 78.5c0 27.333 5.33301 53.166 16 77.499s25 45.5 43 63.5
s39.167 32.167 63.5 42.5s50.5 15.5 78.5 15.5c36 0 69.333 -8.66699 100 -26s55 -41.666 73 -72.999h1l-85 -56l-1 2c-8.66699 18 -20.834 33 -36.501 45s-32.834 18 -51.501 18zM641 602.999c34.667 -34 61 -72.833 79 -116.5s27 -89.5 27 -137.5s-9 -93.5 -27 -136.5
s-44.333 -81.5 -79 -115.5c-34 -34 -72.667 -60.167 -116 -78.5s-89 -27.5 -137 -27.5s-93.667 9.16699 -137 27.5s-82 44.5 -116 78.5s-60 72.5 -78 115.5s-27 88.5 -27 136.5c0 49.333 9.5 95.833 28.5 139.5s44.833 81.667 77.5 114s70.5 58 113.5 77
s89.167 28.5 138.5 28.5c48.667 0 94.5 -9 137.5 -27s81.5 -44 115.5 -78zM621 116.999c31.333 32 55.334 67.833 72.001 107.5s25 81.167 25 124.5c0 44 -8.33301 86 -25 126s-40.667 75.667 -72 107s-67 55.333 -107 72s-82 25 -126 25
c-45.333 0 -87.833 -8.66699 -127.5 -26s-74.334 -41 -104.001 -71s-53.167 -65 -70.5 -105s-26.333 -82.667 -27 -128c0 -43.333 8.33301 -84.833 25 -124.5s41 -75.167 73 -106.5c30.667 -32 66 -56.333 106 -73s81.667 -25 125 -25c44 0 85.833 8.33301 125.5 25
s75.5 40.667 107.5 72z" />
    <glyph glyph-name="guillemotleft" unicode="&#xab;" horiz-adv-x="519" 
d="M357 509h132l-112 -180l112 -178h-132l-111 178zM142 509h132l-113 -180l113 -178h-132l-112 178z" />
    <glyph glyph-name="registered" unicode="&#xae;" horiz-adv-x="776" 
d="M454 270l89 -111h-95l-57 71zM459 281c-16.667 -7.33301 -35.333 -11 -56 -11h-84v-110h-75v110l1 77l1 187l159 -1c18 0 35 -3.5 51 -10.5s30 -16.5 42 -28.5s21.333 -26 28 -42s10 -33 10 -51c0 -26.667 -7.16699 -50.667 -21.5 -72s-32.833 -37.333 -55.5 -48z
M320.001 345h84c16 0 29.5 5.5 40.5 16.5s16.5 25.833 16.5 44.5c0.666992 16 -4.5 30.167 -15.5 42.5s-24.833 18.833 -41.5 19.5h-83l-1 -121v-1v-1zM390.001 705c49.333 0 95.668 -9.5 139.001 -28.5s81 -44.667 113 -77s57.167 -70.333 75.5 -114
s27.5 -90.167 27.5 -139.5c-0.666992 -48 -10.167 -93.5 -28.5 -136.5s-44.5 -81.5 -78.5 -115.5s-72.667 -59.667 -116 -77s-89 -26 -137 -26c-48 0.666992 -93.333 10 -136 28s-81 44 -115 78s-59.833 72.833 -77.5 116.5s-26.167 89.5 -25.5 137.5
c0 48.667 9.5 94.667 28.5 138s44.833 81 77.5 113s70.667 57.333 114 76s89.666 27.667 138.999 27zM618.003 115c30.667 31.333 54.5029 66.667 71.5029 106s25.833 81 26.5 125c0 45.333 -8.5 88 -25.5 128s-40.167 74.833 -69.5 104.5s-64 53.334 -104 71.001
s-82.333 26.5 -127 26.5c-45.333 0 -88 -8.5 -128 -25.5s-74.833 -40.167 -104.5 -69.5s-53.334 -63.833 -71.001 -103.5s-26.5 -82.167 -26.5 -127.5c-0.666992 -44 7.16602 -85.833 23.499 -125.5s39.833 -75.167 70.5 -106.5c31.333 -31.333 66.666 -55.333 105.999 -72
s81 -25.334 125 -26.001h1c44 0 85.667 8.16699 125 24.5s75 39.833 107 70.5z" />
    <glyph glyph-name="degree" unicode="&#xb0;" horiz-adv-x="324" 
d="M161 570c-18 0 -34.833 3.5 -50.5 10.5s-29.5 16.5 -41.5 28.5s-21.5 26.167 -28.5 42.5s-10.5 33.5 -10.5 51.5s3.5 34.833 10.5 50.5s16.5 29.5 28.5 41.5s25.833 21.5 41.5 28.5s32.5 10.5 50.5 10.5s35.167 -3.5 51.5 -10.5s30.5 -16.5 42.5 -28.5
s21.5 -25.833 28.5 -41.5s10.5 -32.5 10.5 -50.5s-3.5 -35.167 -10.5 -51.5s-16.5 -30.5 -28.5 -42.5s-26.167 -21.5 -42.5 -28.5s-33.5 -10.5 -51.5 -10.5zM161 757c-14.667 0 -27.334 -5.33301 -38.001 -16s-16 -23.334 -16 -38.001c0 -15.333 5.33301 -28.5 16 -39.5
s23.334 -16.5 38.001 -16.5c15.333 0 28.5 5.5 39.5 16.5s16.5 24.167 16.5 39.5c0 14.667 -5.5 27.334 -16.5 38.001s-24.167 16 -39.5 16z" />
    <glyph glyph-name="plusminus" unicode="&#xb1;" horiz-adv-x="364" 
d="M220 453h114v-78h-114v-97h-76v97h-114v78h114v98h76v-98zM30 151v77h304v-77h-304z" />
    <glyph glyph-name="acute" unicode="&#xb4;" horiz-adv-x="242" 
d="M139 587h-109l48 115h134z" />
    <glyph glyph-name="mu" unicode="&#xb5;" horiz-adv-x="702" 
d="M672 124l-1 -126h-131h-5c-18 0 -35 3.33301 -51 10s-29.833 16 -41.5 28s-21 25.833 -28 41.5s-10.5 32.5 -10.5 50.5v371h136v-315c0 -16 5.66699 -30.333 17 -43c11.333 -11.333 25 -17 41 -17h74zM330 127l48 -87.998c-34.667 -30.667 -78 -46 -130 -46
c-32 0 -59 3.33301 -81 10v-203h-137v476v223h137v-252c0 -18 0.5 -35.5 1.5 -52.5s4.5 -31.833 10.5 -44.5s15.667 -22.834 29 -30.501s32.333 -11.5 57 -11.5c11.333 0 22.333 1.66699 33 5s20.667 7.66602 30 12.999z" />
    <glyph glyph-name="paragraph" unicode="&#xb6;" horiz-adv-x="574" 
d="M544 700v-1.99902v-319v-131v-189v-182h-85v710h-75v-710h-85v371h-44c-31.333 0 -60.5 5.83301 -87.5 17.5s-50.833 27.667 -71.5 48s-36.834 44.166 -48.501 71.499s-17.5 56.666 -17.5 87.999c0 30.667 5.83301 59.667 17.5 87s27.834 51.333 48.501 72
s44.5 36.834 71.5 48.501s56.167 17.5 87.5 17.5h44v2h245zM544 700.001v-1.99902v-319v-131v-189v-182h-85v710h-75v-710h-85v371h-44c-31.333 0 -60.5 5.83301 -87.5 17.5s-50.833 27.667 -71.5 48s-36.834 44.166 -48.501 71.499s-17.5 56.666 -17.5 87.999
c0 30.667 5.83301 59.667 17.5 87s27.834 51.333 48.501 72s44.5 36.834 71.5 48.501s56.167 17.5 87.5 17.5h44v2h245z" />
    <glyph glyph-name="periodcentered" unicode="&#xb7;" horiz-adv-x="214" 
d="M183 355c-0.666992 -21.333 -8.33301 -39.499 -23 -54.499s-32.667 -22.167 -54 -21.5c-21.333 0 -39.333 7.5 -54 22.5s-21.667 32.833 -21 53.5c0 21.333 7.33301 39.5 22 54.5s32.667 22.5 54 22.5c21.333 -0.666992 39.5 -8.33398 54.5 -23.001
s22.167 -32.667 21.5 -54z" />
    <glyph glyph-name="guillemotright" unicode="&#xbb;" horiz-adv-x="519" 
d="M162 509l111 -180l-111 -178h-132l112 178l-112 180h132zM377 509l112 -180l-112 -178h-132l113 178l-113 180h132z" />
    <glyph glyph-name="onequarter" unicode="&#xbc;" horiz-adv-x="731" 
d="M569 194v37h80v-77zM665 146h36v-73h-52v-70h-80v70h-182v72l128 258h90l-125 -257h22h67h80h16zM213 697v-46l-140 -90l-43 67l103 69h80zM213 296h-81v297l81 10v-307zM521 708h65l-394 -716h-63z" />
    <glyph glyph-name="onehalf" unicode="&#xbd;" horiz-adv-x="767" 
d="M737 2h-288v70h129h27h132v-70zM586 323c-14 0 -26.3369 -3.99902 -37.0039 -11.999s-18.667 -18.333 -24 -31l-76 21c9.33301 30 26.333 54.5 51 73.5s53.334 28.5 86.001 28.5c20.667 0 39.834 -3.33301 57.501 -10s33 -16 46 -28s23.167 -26.167 30.5 -42.5
s11 -33.833 11 -52.5c0 -15.333 -4.16699 -31.166 -12.5 -47.499s-19.166 -32.5 -32.499 -48.5s-28.5 -32 -45.5 -48s-34.5 -31.333 -52.5 -46l-82 36c2 1.33301 4.66699 3.66602 8 6.99902l45 38c16 13.333 30.833 26.666 44.5 39.999s24.834 26 33.501 38s13 22.333 13 31
c0 17.333 -6.66699 30.5 -20 39.5s-28 13.5 -44 13.5zM212.996 651.001l-139 -90l-44 66l104 70h79v-46zM131.996 296.001v297l81 10v-307h-81zM586.996 708.001l-394 -717h-64l393 717h65z" />
    <glyph glyph-name="threequarters" unicode="&#xbe;" horiz-adv-x="776" 
d="M46 627v70h259v-70h-98h-161zM305 436c0 -19.333 -3.66895 -37.499 -11.002 -54.499s-17.5 -31.833 -30.5 -44.5s-28 -22.667 -45 -30s-35.167 -11 -54.5 -11c-31.333 0 -59.166 9.16699 -83.499 27.5s-41.166 41.5 -50.499 69.5l77 25c2 -12 7.5 -23 16.5 -33
s22.5 -15 40.5 -15c20.667 0 36 6.66699 46 20s15 28.666 15 45.999s-5.83301 31.833 -17.5 43.5s-26.167 17.5 -43.5 17.5h-39v60l75 63l81 -36l-37 -31c18.667 -13.333 33.5 -30 44.5 -50s16.5 -42.333 16.5 -67zM613.998 231.001h80v-77l-80 40v37zM745.998 146.001v-73
h-52v-70h-80v70h-182v72l128 258h90l-125 -257h22h67h80h16h36zM630.998 708.001l-393 -716h-64l392 716h65z" />
    <glyph glyph-name="questiondown" unicode="&#xbf;" horiz-adv-x="554" 
d="M286 350c-21.333 0 -39.834 7.83203 -55.501 23.499s-23.5 34.5 -23.5 56.5c0 10.667 2.16699 20.834 6.5 30.501s10 18 17 25s15.333 12.5 25 16.5s19.834 6 30.501 6c22 0 40.833 -7.83301 56.5 -23.5s23.5 -34.167 23.5 -55.5c0 -22 -7.83301 -40.833 -23.5 -56.5
s-34.5 -23.167 -56.5 -22.5zM523.999 -78.001c-11.333 -14.667 -25.3262 -29.6641 -41.9932 -44.9971s-36.334 -29.166 -59.001 -41.499s-48.334 -22.5 -77.001 -30.5s-60.334 -12 -95.001 -12c-69.333 0 -123.5 18.333 -162.5 55s-58.5 88.334 -58.5 155.001v3
c0 29.333 4.66699 53.5 14 72.5s21 35.5 35 49.5s29.167 26.333 45.5 37s31.5 22.167 45.5 34.5s25.667 26.666 35 42.999s14 36.833 14 61.5h142v-12v-1c0 -34.667 -5 -63 -15 -85s-22.333 -40.167 -37 -54.5s-30.834 -26.333 -48.501 -36s-33.834 -19.834 -48.501 -30.501
s-27 -23.334 -37 -38.001s-15 -34 -15 -58c0 -18.667 7.66699 -34.167 23 -46.5s35.166 -19.333 59.499 -21s51.166 3.16602 80.499 14.499s58 31.666 86 60.999z" />
    <glyph glyph-name="Agrave" unicode="&#xc0;" horiz-adv-x="775" 
d="M548 125h-322l-51 -125h-150l286 700h151l-185 -450h220l-104 249l109 104l248 -603h-152zM370 770l-73 116h132l48 -116h-107z" />
    <glyph glyph-name="Aacute" unicode="&#xc1;" horiz-adv-x="776" 
d="M601 0l-52 126h-320l-51 -126h-153l288 702h151l-185 -452h219l-102 250l108 105l247 -605h-150zM496 889l-73 -116h-109l48 116h134z" />
    <glyph glyph-name="Acircumflex" unicode="&#xc2;" horiz-adv-x="776" 
d="M353 906h71h1l84 -135h-85l-34 67l-37 -67h-86l84 135h2zM600 0h151l-248 604l-108 -104l103 -251h-220l26.5 64l33.5 81l36.5 88.5l35.5 87l31 75.5l23 55h-151l-288 -700h151l51 125h322z" />
    <glyph glyph-name="Atilde" unicode="&#xc3;" horiz-adv-x="775" 
d="M548 124h-321l-51 -124h-151l287 700h151l-23 -55.5l-31 -75.5l-35.5 -86.5l-36 -88.5l-33 -81l-26.5 -64h219l-103 251l108 104l248 -604h-151zM258 778l-56.999 33l17 29c12 24 26.167 39.667 42.5 47s33.166 10.166 50.499 8.49902s34.166 -6.5 50.499 -14.5
s31.166 -15.667 44.499 -23c16 -8.66699 29.5 -15.5 40.5 -20.5s20 -8 27 -9s12.667 -0.333008 17 2s8.16602 6.5 11.499 12.5l17 28l55 -37l-19 -28c-10.667 -17.333 -22.167 -29.166 -34.5 -35.499s-25.166 -9.5 -38.499 -9.5c-19.333 0 -38 4.16699 -56 12.5
s-34.667 16.833 -50 25.5c-17.333 9.33301 -31.666 16.5 -42.999 21.5s-20.666 7.83301 -27.999 8.5s-13.333 -0.833008 -18 -4.5s-9 -9.16699 -13 -16.5z" />
    <glyph glyph-name="Adieresis" unicode="&#xc4;" horiz-adv-x="775" 
d="M549 125h-321l-51 -125h-152l287 700h152l-186 -451h219l-103 251l109 104l247 -604h-150zM293 768c-16.667 0 -30.667 6 -42 18s-17 26.333 -17 43c0 17.333 5.83301 31.833 17.5 43.5s25.834 17.5 42.501 17.5c17.333 0 31.833 -6 43.5 -18s17.5 -26.333 17.5 -43
c-0.666992 -17.333 -6.83398 -31.833 -18.501 -43.5s-26.167 -17.5 -43.5 -17.5zM481 768c-16.667 0 -30.833 6 -42.5 18s-17.5 26.333 -17.5 43c0 17.333 6 31.833 18 43.5s26.333 17.5 43 17.5c17.333 0 31.833 -6 43.5 -18s17.167 -26.333 16.5 -43
c0 -17.333 -5.83301 -31.833 -17.5 -43.5s-26.167 -17.5 -43.5 -17.5z" />
    <glyph glyph-name="Aring" unicode="&#xc5;" horiz-adv-x="756" 
d="M535 121h-313.002l-50 -121h-147l280 682h2c-9.33301 9.33301 -16.833 20.5 -22.5 33.5s-8.5 26.5 -8.5 40.5s2.66699 27.5 8 40.5s12.833 24.167 22.5 33.5s20.834 16.833 33.501 22.5s26 8.5 40 8.5c14.667 0 28.334 -2.83301 41.001 -8.5s23.667 -13.167 33 -22.5
s16.833 -20.5 22.5 -33.5s8.5 -26.5 8.5 -40.5c0 -30.667 -11.667 -56.667 -35 -78l-178 -435h212l-100 243l106 101l241 -587h-148zM379.998 799c-11.333 0 -21.166 -4.33301 -29.499 -13s-12.5 -18.667 -12.5 -30s4.16699 -21.333 12.5 -30s18.166 -13 29.499 -13
s21.333 4.33301 30 13s13 18.667 13 30s-4.33301 21.333 -13 30s-18.667 13 -30 13z" />
    <glyph glyph-name="AE" unicode="&#xc6;" horiz-adv-x="1027" 
d="M919 410v-130h-167l-63 130h230zM601 700h401v-140h-401v140zM503 604l191 -464h308v-140h-252v0h-150l-51 124h-322l-51 -124h-151l288 700h151l-185 -450h219l-103 251z" />
    <glyph glyph-name="Egrave" unicode="&#xc8;" horiz-adv-x="530" 
d="M416 282h-166l-64 127h230v-127zM500 700v-140h-330v-420h330v-140h-330v0h-140v700h66h74h330zM356 771h-109l-72 116h133z" />
    <glyph glyph-name="Eacute" unicode="&#xc9;" horiz-adv-x="530" 
d="M417 281h-167l-64 129h231v-129zM500 700v-140h-330v-420h330v-140h-330v0h-140v700h68h72h330zM356 887l-73 -115h-109l48 115h134z" />
    <glyph glyph-name="Ecircumflex" unicode="&#xca;" horiz-adv-x="530" 
d="M416 279h-167l-63 130h230v-130zM500 699v-139h-330v-420h330v-140h-330v0h-140v699h67h73h330zM266 838l-37 -67h-86l84 134h2h71h1l85 -134h-86z" />
    <glyph glyph-name="Edieresis" unicode="&#xcb;" horiz-adv-x="529" 
d="M250 280l-64 129h230v-129h-166zM499 559h-329v-419h329v-140h-329h-140v698h67h73h329v-139zM170 766c-16.667 0.666992 -30.832 6.83203 -42.499 18.499s-17.5 26.167 -17.5 43.5c0 16.667 6 30.834 18 42.501s26.333 17.5 43 17.5c17.333 0 31.833 -6 43.5 -18
s17.5 -26.333 17.5 -43c-0.666992 -17.333 -6.83398 -31.833 -18.501 -43.5s-26.167 -17.5 -43.5 -17.5zM357.002 765.998c-16.667 0.666992 -30.832 6.83203 -42.499 18.499s-17.5 26.167 -17.5 43.5c0 16.667 6 30.834 18 42.501s26.333 17.5 43 17.5
c17.333 0 31.833 -6 43.5 -18s17.5 -26.333 17.5 -43c-0.666992 -17.333 -6.83398 -31.833 -18.501 -43.5s-26.167 -17.5 -43.5 -17.5z" />
    <glyph glyph-name="Igrave" unicode="&#xcc;" horiz-adv-x="251" 
d="M77 700h144v-700h-144v700zM211 771h-108l-73 115h133z" />
    <glyph glyph-name="Iacute" unicode="&#xcd;" horiz-adv-x="261" 
d="M30 0v700h144v-700h-144zM231 886l-73 -115h-108l48 115h133z" />
    <glyph glyph-name="Icircumflex" unicode="&#xce;" horiz-adv-x="301" 
d="M78 0v700h146v-700h-146zM152 836l-36 -68h-86l84 135h2h70h1l84 -135h-85z" />
    <glyph glyph-name="Idieresis" unicode="&#xcf;" horiz-adv-x="368" 
d="M113 700h144v-700h-144v700zM151 828c0 -16.667 -6 -30.833 -18 -42.5s-26 -17.5 -42 -17.5c-17.333 0 -31.833 6 -43.5 18s-17.167 26 -16.5 42c0 17.333 5.83301 31.833 17.5 43.5s26.167 17.5 43.5 17.5c16 0 29.833 -6 41.5 -18s17.5 -26.333 17.5 -43zM279 889.001
c16 0 29.833 -5.99902 41.5 -17.999s17.5 -26.333 17.5 -43s-6 -30.834 -18 -42.501s-26 -17.5 -42 -17.5c-17.333 0 -31.833 6 -43.5 18s-17.167 26 -16.5 42c0 17.333 5.83301 31.833 17.5 43.5s26.167 17.5 43.5 17.5z" />
    <glyph glyph-name="Eth" unicode="&#xd0;" horiz-adv-x="829" 
d="M455 700c48 0 93.167 -9.16895 135.5 -27.502s79.333 -43.333 111 -75s56.667 -68.834 75 -111.501s27.5 -88.334 27.5 -137.001c0 -48 -9.16699 -93.333 -27.5 -136s-43.333 -79.667 -75 -111s-68.667 -56.166 -111 -74.499s-87.5 -27.5 -135.5 -27.5h-60l-66 122h126
c28 0 54.667 5.66699 80 17s47.5 27 66.5 47s34 43.833 45 71.5s16.5 58.167 16.5 91.5c0 32.667 -5.5 62.834 -16.5 90.501s-26 51.834 -45 72.501s-41.167 36.834 -66.5 48.501s-52 17.5 -80 17.5h-163v-167h130v-122h-130v-289h-140v289h-142v122h142v289h91h49h163v0z
" />
    <glyph glyph-name="Ntilde" unicode="&#xd1;" horiz-adv-x="660" 
d="M630 50v-50h-147l-307 442v-442h-146v701h146l307 -442zM629 700v-524l-146 104v420h146zM201 778l-56.998 32.002l15 30c12.667 23.333 27.167 38.833 43.5 46.5s33.166 10.5 50.499 8.5s34.5 -7 51.5 -15s32.167 -15.667 45.5 -23
c16 -8.66699 29.167 -15.334 39.5 -20.001s19 -7.5 26 -8.5s12.667 -0.333008 17 2s8.16602 6.16602 11.499 11.499l18 28l54 -37l-17 -29c-11.333 -16 -23.5 -27.333 -36.5 -34s-26.167 -10 -39.5 -10c-17.333 0 -35.333 4.33301 -54 13l-50 24
c-17.333 10 -31.666 17.5 -42.999 22.5s-20.833 7.83301 -28.5 8.5s-13.834 -0.833008 -18.501 -4.5s-9 -9.16699 -13 -16.5z" />
    <glyph glyph-name="Ograve" unicode="&#xd2;" horiz-adv-x="747" 
d="M372 708c50 0 96.332 -9.33398 138.999 -28.001s79.667 -44.167 111 -76.5s55.833 -70.333 73.5 -114s26.5 -90.167 26.5 -139.5c0 -42 -6.33301 -82 -19 -120s-30.5 -72.167 -53.5 -102.5s-50.667 -56.333 -83 -78s-68.166 -37.5 -107.499 -47.5l-70 120
c28 2 53.5 9.33301 76.5 22s42.833 29.334 59.5 50.001s29.667 44.334 39 71.001s14 55 14 85c0 32 -5.16699 61.833 -15.5 89.5s-24.5 52 -42.5 73s-39.667 37.5 -65 49.5s-53 18 -83 18c-29.333 0 -56.5 -6 -81.5 -18s-46.5 -28.5 -64.5 -49.5s-32.167 -45.333 -42.5 -73
s-15.5 -57.5 -15.5 -89.5c0 -31.333 5.16699 -60.833 15.5 -88.5s24.5 -51.834 42.5 -72.501s39.5 -37 64.5 -49s52.167 -18 81.5 -18v-130c-49.333 0 -95 9.33301 -137 28s-78.667 44.334 -110 77.001s-55.833 70.667 -73.5 114s-26.5 89.666 -26.5 138.999
s8.83301 95.833 26.5 139.5s42.167 81.667 73.5 114s68 57.833 110 76.5s87.667 28 137 28zM341.999 772.999l-74 116h135l49 -116h-110z" />
    <glyph glyph-name="Oacute" unicode="&#xd3;" horiz-adv-x="748" 
d="M374 709c49.333 0 95.332 -9.50098 137.999 -28.501s79.667 -44.667 111 -77s55.833 -70.333 73.5 -114s26.5 -90.167 26.5 -139.5c0 -42 -6.33301 -82 -19 -120s-30.667 -72.333 -54 -103s-51.166 -56.834 -83.499 -78.501s-67.833 -37.167 -106.5 -46.5l-70 119
c28 2 53.5 9.5 76.5 22.5s42.833 29.667 59.5 50s29.667 44 39 71s14 55.5 14 85.5c0 31.333 -5.16699 61 -15.5 89s-24.5 52.333 -42.5 73s-39.5 37 -64.5 49s-52.5 18 -82.5 18s-57.5 -6 -82.5 -18s-46.667 -28.333 -65 -49s-32.666 -45 -42.999 -73
s-15.5 -57.667 -15.5 -89s5.16699 -61 15.5 -89s24.666 -52.333 42.999 -73s40 -37 65 -49s52.5 -18 82.5 -18v-130c-49.333 0 -95.333 9.33301 -138 28s-79.667 44.334 -111 77.001s-55.833 70.834 -73.5 114.501s-26.5 90.167 -26.5 139.5s8.83301 95.833 26.5 139.5
s42.167 81.667 73.5 114s68.333 58 111 77s88.667 28.5 138 28.5zM391.999 771.999h-109l48 115h134z" />
    <glyph glyph-name="Ocircumflex" unicode="&#xd4;" horiz-adv-x="746" 
d="M374 708c49.333 0 95.167 -9.50293 137.5 -28.5029s79 -44.667 110 -77s55.333 -70.333 73 -114s26.5 -90.167 26.5 -139.5c0 -42 -6.33301 -82 -19 -120s-30.5 -72.167 -53.5 -102.5s-50.5 -56.333 -82.5 -78s-67.333 -37.5 -106 -47.5l-71 119
c28 2.66699 53.5 10.334 76.5 23.001s42.833 29.334 59.5 50.001s29.667 44.334 39 71.001s14 55 14 85c0 31.333 -5.16699 61 -15.5 89s-24.5 52.333 -42.5 73s-39.5 37 -64.5 49s-52.167 18 -81.5 18c-30 0 -57.5 -6 -82.5 -18s-46.5 -28.333 -64.5 -49
s-32.167 -45 -42.5 -73s-15.5 -57.667 -15.5 -89s5.16699 -60.833 15.5 -88.5s24.5 -52 42.5 -73s39.5 -37.5 64.5 -49.5s52.5 -18 82.5 -18v-129c-50 0 -96.167 9.33301 -138.5 28s-79.166 44.334 -110.499 77.001s-55.833 70.667 -73.5 114s-26.5 89.666 -26.5 138.999
s8.83301 95.833 26.5 139.5s42.167 81.667 73.5 114s68.166 58 110.499 77s88.5 28.5 138.5 28.5zM337.001 771.997h-85l83 135h3h70h2l85 -135h-85l-35 67z" />
    <glyph glyph-name="Otilde" unicode="&#xd5;" horiz-adv-x="745" 
d="M373 708c49.333 0 95.166 -9.33008 137.499 -27.9971s79 -44.167 110 -76.5s55.333 -70.333 73 -114s26.5 -90.167 26.5 -139.5c0 -42 -6.33301 -81.833 -19 -119.5s-30.5 -71.667 -53.5 -102s-50.667 -56.333 -83 -78s-67.833 -37.5 -106.5 -47.5l-70 120
c28 2 53.5 9.33301 76.5 22s43 29.167 60 49.5s30.167 43.833 39.5 70.5s14 55 14 85c0 31.333 -5.16699 61 -15.5 89s-24.666 52.333 -42.999 73s-40 37 -65 49s-52.167 18 -81.5 18c-30 0 -57.5 -6 -82.5 -18s-46.5 -28.333 -64.5 -49s-32.167 -45 -42.5 -73
s-15.5 -57.667 -15.5 -89s5.16699 -60.833 15.5 -88.5s24.5 -51.834 42.5 -72.501s39.5 -37 64.5 -49s52.5 -18 82.5 -18v-129c-49.333 0 -95.333 9.33301 -138 28s-79.5 44.167 -110.5 76.5s-55.333 70.166 -73 113.499s-26.5 89.666 -26.5 138.999
s8.83301 95.833 26.5 139.5s42 81.667 73 114s67.833 57.833 110.5 76.5s88.667 28 138 28zM243 780.003l-57 32.001l16 29c12.667 24 27.167 39.833 43.5 47.5s33.166 10.5 50.499 8.5s34.333 -7 51 -15s31.334 -15.667 44.001 -23c16 -8.66699 29.5 -15.334 40.5 -20.001
s20 -7.5 27 -8.5s12.667 -0.333008 17 2s8.5 6.16602 12.5 11.499l17 28l55 -37l-19 -28c-10.667 -16.667 -22.167 -28.167 -34.5 -34.5s-25.5 -9.5 -39.5 -9.5c-18.667 0 -37.167 4 -55.5 12s-34.833 16.667 -49.5 26c-17.333 9.33301 -31.833 16.333 -43.5 21
s-21.167 7.33398 -28.5 8.00098s-13.5 -0.833008 -18.5 -4.5s-9.5 -9.16699 -13.5 -16.5z" />
    <glyph glyph-name="Odieresis" unicode="&#xd6;" horiz-adv-x="748" 
d="M374 709c49.333 0 95.332 -9.50098 137.999 -28.501s79.667 -44.667 111 -77s55.833 -70.333 73.5 -114s26.5 -90.167 26.5 -139.5c0 -42 -6.33301 -82 -19 -120s-30.667 -72.333 -54 -103s-51.166 -56.834 -83.499 -78.501s-67.833 -37.167 -106.5 -46.5l-70 119
c28 2 53.5 9.5 76.5 22.5s42.833 29.667 59.5 50s29.667 44 39 71s14 55.5 14 85.5c0 31.333 -5.16699 61 -15.5 89s-24.5 52.333 -42.5 73s-39.5 37 -64.5 49s-52.5 18 -82.5 18s-57.5 -6 -82.5 -18s-46.667 -28.333 -65 -49s-32.666 -45 -42.999 -73
s-15.5 -57.667 -15.5 -89s5.16699 -61 15.5 -89s24.666 -52.333 42.999 -73s40 -37 65 -49s52.5 -18 82.5 -18v-130c-49.333 0 -95.333 9.33301 -138 28s-79.667 44.334 -111 77.001s-55.833 70.834 -73.5 114.501s-26.5 90.167 -26.5 139.5s8.83301 95.833 26.5 139.5
s42.167 81.667 73.5 114s68.333 58 111 77s88.667 28.5 138 28.5zM307.999 818.999c-0.666992 -20 -8.16699 -37.333 -22.5 -52s-31.833 -22 -52.5 -22c-19.333 0 -36.333 7.33301 -51 22s-22 32 -22 52c0.666992 20 8.16699 37.333 22.5 52s31.5 21.667 51.5 21
c20 0 37.333 -7.16699 52 -21.5s22 -31.5 22 -51.5zM587.999 818.999c0 -20 -7.33398 -37.333 -22.001 -52s-32 -22 -52 -22c-20.667 0 -38.167 7.33301 -52.5 22s-21.5 32 -21.5 52s7.33301 37.333 22 52s32.334 21.667 53.001 21c20 0 37.167 -7.16699 51.5 -21.5
s21.5 -31.5 21.5 -51.5z" />
    <glyph glyph-name="Ugrave" unicode="&#xd9;" horiz-adv-x="664" 
d="M172 289c0 -24 4.16797 -46.5 12.501 -67.5s19.833 -39.333 34.5 -55s31.834 -28.167 51.501 -37.5s40.5 -14 62.5 -14v-123c-42 0 -81.333 7.83301 -118 23.5s-68.834 37.167 -96.501 64.5s-49.334 59.333 -65.001 96s-23.5 76 -23.5 118v406h142v-406v-2v-3z
M634.001 700l-0.000976562 -406.001c0 -35.333 -5.83301 -68.833 -17.5 -100.5s-27.667 -60.334 -48 -86.001s-44.5 -47.667 -72.5 -66s-58.333 -31.833 -91 -40.5l-62 115c20.667 1.33301 40 6.83301 58 16.5s33.833 22.334 47.5 38.001s24.334 33.667 32.001 54
s11.5 41.833 11.5 64.5c0 0.666992 -0.166992 1.16699 -0.5 1.5s-0.5 0.833008 -0.5 1.5c0 2 0.166992 2.33301 0.5 1s0.5 -0.166016 0.5 3.50098v24v63v120.5v196h142zM416 772.999h-100l-68 106h124l44 -106v0z" />
    <glyph glyph-name="Uacute" unicode="&#xda;" horiz-adv-x="664" 
d="M172 289c0 -24 4.16797 -46.5 12.501 -67.5s19.833 -39.333 34.5 -55s31.834 -28.167 51.501 -37.5s40.5 -14 62.5 -14v-123c-42 0 -81.333 7.83301 -118 23.5s-68.834 37.167 -96.501 64.5s-49.334 59.333 -65.001 96s-23.5 76 -23.5 118v406h142v-406v-2v-3z
M634.001 700l-0.000976562 -406.001c0 -35.333 -5.83301 -68.833 -17.5 -100.5s-27.667 -60.334 -48 -86.001s-44.5 -47.667 -72.5 -66s-58.333 -31.833 -91 -40.5l-62 115c20.667 1.33301 40 6.83301 58 16.5s33.833 22.334 47.5 38.001s24.334 33.667 32.001 54
s11.5 41.833 11.5 64.5c0 0.666992 -0.166992 1.16699 -0.5 1.5s-0.5 0.833008 -0.5 1.5c0 2 0.166992 2.33301 0.5 1s0.5 -0.166016 0.5 3.50098v24v63v120.5v196h142zM350 766.999h-109l48 115h134z" />
    <glyph glyph-name="Ucircumflex" unicode="&#xdb;" horiz-adv-x="661" 
d="M172 290c0 -24 4.16797 -46.667 12.501 -68s19.666 -39.833 33.999 -55.5s31.333 -28 51 -37s40.5 -13.5 62.5 -13.5v-123c-41.333 0 -80.333 7.83301 -117 23.5s-68.667 37.167 -96 64.5s-49 59.333 -65 96s-24 76 -24 118v413h142v-413v-2v-3zM631.001 708
l-0.000976562 -413c0 -35.333 -5.66699 -68.833 -17 -100.5s-27.166 -60.5 -47.499 -86.5s-44.333 -48.167 -72 -66.5s-57.5 -31.5 -89.5 -39.5l-63 114c20.667 1.33301 40.167 6.83301 58.5 16.5s34 22.334 47 38.001s23.333 33.667 31 54s11.5 42.166 11.5 65.499v3v2v413
h141zM367 777l-34 69l-38 -69h-85l84 137h1h72h2l85 -137h-87z" />
    <glyph glyph-name="Udieresis" unicode="&#xdc;" horiz-adv-x="662" 
d="M172 289c0 -24 4.16504 -46.498 12.498 -67.498s19.833 -39.5 34.5 -55.5s31.5 -28.5 50.5 -37.5s39.5 -13.5 61.5 -13.5v-123c-41.333 0 -80.166 8 -116.499 24s-68.166 37.667 -95.499 65s-49 59.166 -65 95.499s-24 75.166 -24 116.499v415h142v-415v-2v-2z
M631.998 708.002l0.000976562 -414.997c0 -35.333 -5.83301 -68.833 -17.5 -100.5s-27.667 -60.334 -48 -86.001s-44.333 -47.667 -72 -66s-57.5 -31.5 -89.5 -39.5l-63 115c20.667 1.33301 40.167 6.83301 58.5 16.5s34.166 22.167 47.499 37.5s23.833 33.166 31.5 53.499
s11.5 42.166 11.5 65.499v2v2v415h141zM235.999 774.005c-16.667 0 -31 6 -43 18s-18 26.667 -18 44c0.666992 17.333 7 31.833 19 43.5s26.333 17.5 43 17.5c17.333 0 31.833 -6 43.5 -18s17.167 -26.667 16.5 -44c0 -17.333 -5.83301 -31.833 -17.5 -43.5
s-26.167 -17.5 -43.5 -17.5zM426.999 774.005c-17.333 0 -31.999 6 -43.999 18s-18 26.667 -18 44s6.16699 31.833 18.5 43.5s27.166 17.5 44.499 17.5c16.667 0 30.834 -6 42.501 -18s17.167 -26.667 16.5 -44c0 -17.333 -5.83301 -31.833 -17.5 -43.5
s-25.834 -17.5 -42.501 -17.5z" />
    <glyph glyph-name="Yacute" unicode="&#xdd;" horiz-adv-x="672" 
d="M179 700l146 -294l-108 -90l-207 384h169zM491 700h171l-254 -468v-232h-146v232l-1 2l74 151zM354 767h-109l48 115h134z" />
    <glyph glyph-name="agrave" unicode="&#xe0;" horiz-adv-x="601" 
d="M571 500v-500.999h-134v252c0 18.667 -3.66699 36.5 -11 53.5s-17.333 31.833 -30 44.5s-27.5 22.667 -44.5 30s-35.167 11 -54.5 11s-37.5 -3.66699 -54.5 -11s-31.667 -17.333 -44 -30s-22.166 -27.5 -29.499 -44.5s-11 -35.167 -11 -54.5s3.66699 -37.5 11 -54.5
s17.166 -31.667 29.499 -44s27 -22.166 44 -29.499s35.167 -11 54.5 -11c18.667 0 36.667 3.33301 54 10h1h1l49 -91l-1 -1c-32.667 -25.333 -73 -38 -121 -38c-36 0 -69.667 6.83301 -101 20.5s-58.833 32.167 -82.5 55.5s-42.334 50.666 -56.001 81.999
s-20.5 65 -20.5 101s6.83301 69.667 20.5 101s32.334 58.666 56.001 81.999s51.167 41.833 82.5 55.5s65 20.5 101 20.5c68.667 0 121 -25.667 157 -77v68h134zM237 556.001l-73 115h134l49 -115h-110z" />
    <glyph glyph-name="aacute" unicode="&#xe1;" horiz-adv-x="599" 
d="M569 500l-0.999023 -498.996h-131v249c0 19.333 -3.83301 37.5 -11.5 54.5s-17.834 31.667 -30.501 44s-27.5 22.166 -44.5 29.499s-34.833 11 -53.5 11c-19.333 0 -37.666 -3.66699 -54.999 -11s-32.333 -17.333 -45 -30s-22.667 -27.5 -30 -44.5s-11 -35.167 -11 -54.5
c0 -18.667 3.66699 -36.334 11 -53.001s17.333 -31.334 30 -44.001s27.667 -22.667 45 -30s35.666 -11 54.999 -11s37 3.33301 53 10l1 1l1 -1l49 -90v-1c-33.333 -25.333 -74.333 -38 -123 -38c-35.333 0 -68.666 6.83301 -99.999 20.5s-58.666 32.167 -81.999 55.5
s-41.833 50.5 -55.5 81.5s-20.5 64.167 -20.5 99.5c0 36 6.83301 69.667 20.5 101s32.167 58.666 55.5 81.999s50.666 41.833 81.999 55.5s64.666 20.5 99.999 20.5c69.333 0 122.333 -25.333 159 -76v68h132zM312.001 555.004h-109l48 115h135z" />
    <glyph glyph-name="acircumflex" unicode="&#xe2;" horiz-adv-x="598" 
d="M568 500l-0.000976562 -499.996h-132v251c0 18.667 -3.83301 36.5 -11.5 53.5s-17.667 31.667 -30 44s-27 22.166 -44 29.499s-35.167 11 -54.5 11s-37.5 -3.66699 -54.5 -11s-31.833 -17.333 -44.5 -30s-22.667 -27.5 -30 -44.5s-11 -34.833 -11 -53.5
c0 -19.333 3.66699 -37.5 11 -54.5s17.333 -31.667 30 -44s27.5 -22.166 44.5 -29.499s35.167 -11 54.5 -11c18.667 0 36.334 3.66699 53.001 11h2v-1l50 -90c-34 -26 -74.667 -39 -122 -39c-35.333 0 -68.833 6.83301 -100.5 20.5s-59.167 32.167 -82.5 55.5
s-41.833 50.666 -55.5 81.999s-20.5 64.666 -20.5 99.999s6.83301 68.666 20.5 99.999s32.167 58.666 55.5 81.999s50.833 41.833 82.5 55.5s65.167 20.5 100.5 20.5c68.667 0 121 -25.333 157 -76v68h132zM257.999 555.004h-85l83 135h3h71h1l85 -135h-86l-35 68z" />
    <glyph glyph-name="atilde" unicode="&#xe3;" horiz-adv-x="597" 
d="M146 552l-56.999 32l15 30c12.667 23.333 27.167 38.833 43.5 46.5s33.166 10.5 50.499 8.5s34.166 -7 50.499 -15s31.166 -15.667 44.499 -23c16 -8.66699 29.5 -15.334 40.5 -20.001s20 -7.5 27 -8.5s12.667 -0.333008 17 2s8.16602 6.16602 11.499 11.499l18 29
l54 -38l-17 -27c-11.333 -17.333 -23.333 -29.166 -36 -35.499s-25.667 -9.5 -39 -9.5c-18.667 0 -37.167 4.16699 -55.5 12.5s-35.166 16.833 -50.499 25.5c-17.333 9.33301 -31.666 16.333 -42.999 21s-20.666 7.33398 -27.999 8.00098s-13.333 -0.833008 -18 -4.5
s-9 -9.16699 -13 -16.5zM567.001 500l-0.00195312 -498.995h-132v250c0 18.667 -3.66699 36.5 -11 53.5s-17.166 31.667 -29.499 44s-27 22.166 -44 29.499s-35.167 11 -54.5 11s-37.5 -3.66699 -54.5 -11s-31.833 -17.166 -44.5 -29.499s-22.667 -27 -30 -44
s-11 -35.167 -11 -54.5s3.66699 -37.333 11 -54s17.333 -31.334 30 -44.001s27.5 -22.5 44.5 -29.5s35.167 -10.5 54.5 -10.5c18 0 36 3 54 9l1 1v-1l50 -90l-1 -1c-33.333 -25.333 -73.666 -38 -120.999 -38c-36 0 -69.667 6.83301 -101 20.5s-58.666 32.167 -81.999 55.5
s-41.833 50.666 -55.5 81.999s-20.5 64.666 -20.5 99.999s6.83301 68.666 20.5 99.999s32.167 58.666 55.5 81.999s50.666 41.833 81.999 55.5s65 20.5 101 20.5c67.333 0 119.333 -25.333 156 -76v68h132z" />
    <glyph glyph-name="adieresis" unicode="&#xe4;" horiz-adv-x="598" 
d="M568 500v-498.998h-133v251c0 18.667 -3.66699 36.334 -11 53.001s-17.333 31.334 -30 44.001s-27.5 22.5 -44.5 29.5s-35.167 10.5 -54.5 10.5s-37.333 -3.66699 -54 -11s-31.334 -17.166 -44.001 -29.499s-22.667 -27 -30 -44s-11 -34.833 -11 -53.5
c0 -19.333 3.66699 -37.5 11 -54.5s17.333 -31.833 30 -44.5s27.334 -22.667 44.001 -30s34.667 -11 54 -11c18 0 36.333 3.66699 55 11l1 1v-2l50 -90h-2c-33.333 -25.333 -73.333 -38 -120 -38c-36 0 -69.667 6.66699 -101 20s-58.833 31.666 -82.5 54.999
s-42.167 50.666 -55.5 81.999s-20 65 -20 101c0 35.333 6.66699 68.666 20 99.999s31.833 58.666 55.5 81.999s51.167 41.666 82.5 54.999s65 20 101 20c68 0 120 -25.333 156 -76v68h133zM174 560.002c-17.333 0.666992 -31.8359 6.83398 -43.5029 18.501
s-17.5 26.167 -17.5 43.5c0.666992 16 6.83398 30 18.501 42s26.167 17.667 43.5 17c16.667 0 30.834 -5.83301 42.501 -17.5s17.167 -25.834 16.5 -42.501c0 -17.333 -5.66699 -31.833 -17 -43.5s-25.666 -17.5 -42.999 -17.5zM361.997 560.002
c-17.333 0.666992 -31.834 6.83398 -43.501 18.501s-17.5 26.167 -17.5 43.5c0 16 6 30 18 42s26.667 17.667 44 17c16.667 0 30.834 -5.83301 42.501 -17.5s17.5 -25.834 17.5 -42.501c0 -17.333 -6 -31.833 -18 -43.5s-26.333 -17.5 -43 -17.5z" />
    <glyph glyph-name="aring" unicode="&#xe5;" horiz-adv-x="597" 
d="M567 499l0.000976562 -499.002h-132l1 251c0 18.667 -3.83301 36.334 -11.5 53.001s-17.834 31.334 -30.501 44.001s-27.5 22.5 -44.5 29.5s-35.167 10.5 -54.5 10.5s-37.333 -3.66699 -54 -11s-31.334 -17.166 -44.001 -29.499s-22.667 -27 -30 -44
s-11 -34.833 -11 -53.5c0 -19.333 3.66699 -37.5 11 -54.5s17.333 -31.667 30 -44s27.334 -22.166 44.001 -29.499s34.667 -11 54 -11c20 0 38 3.33301 54 10l1 1l1 -1l49 -90l-1 -1c-32.667 -25.333 -72.667 -38 -120 -38c-36 0 -69.667 6.83301 -101 20.5
s-58.666 32.167 -81.999 55.5s-41.833 50.666 -55.5 81.999s-20.5 64.666 -20.5 99.999s6.83301 68.5 20.5 99.5s32.167 58.167 55.5 81.5s50.666 41.833 81.999 55.5s65 20.5 101 20.5c66 0 118.333 -25.333 157 -76v68h131zM266.001 532.998
c-24 0 -44.5039 8.33301 -61.5039 25s-25.5 37.334 -25.5 62.001c0 12 2.33301 23.167 7 33.5s10.834 19.333 18.501 27s16.834 13.834 27.501 18.501s22 7 34 7s23.333 -2.33301 34 -7s19.834 -10.834 27.501 -18.501s13.834 -16.667 18.501 -27s7 -21.5 7 -33.5
c0 -24.667 -8.5 -45.334 -25.5 -62.001s-37.5 -25 -61.5 -25zM265.997 653.998c-10.667 0 -19.334 -3.33301 -26.001 -10s-10 -14.667 -10 -24c0 -10 3.33301 -18.667 10 -26s15.334 -11 26.001 -11c9.33301 0 17.5 3.66699 24.5 11s10.5 16 10.5 26
c0 9.33301 -3.5 17.333 -10.5 24s-15.167 10 -24.5 10z" />
    <glyph glyph-name="ae" unicode="&#xe6;" horiz-adv-x="976" 
d="M695 508c36 0 69.832 -6.66602 101.499 -19.999s59.334 -31.666 83.001 -54.999s42.334 -50.666 56.001 -81.999s20.5 -65 20.5 -101c0 -9.33301 -0.666992 -18.833 -2 -28.5s-3 -19.167 -5 -28.5l-1 -1h-44h-90h-121l-63 101h188c-8 28 -23 51.167 -45 69.5
s-48 27.5 -78 27.5c-16 0 -31 -2.83301 -45 -8.5s-26.5 -13.667 -37.5 -24s-20.333 -22.5 -28 -36.5s-12.834 -29 -15.501 -45v-49c2.66699 -14 7.5 -27.833 14.5 -41.5s16 -26.167 27 -37.5s23.5 -20.5 37.5 -27.5s29.667 -10.5 47 -10.5c18.667 0 35.667 2.66699 51 8
s30 16.333 44 33v1v-1l117 -51l-1 -1c-24.667 -34 -55.5 -60.333 -92.5 -79s-76.5 -28 -118.5 -28c-23.333 0 -45.333 2.83301 -66 8.5s-40.667 13.834 -60 24.501v-25h-133l1 248c0 0.666992 -0.166992 1 -0.5 1s-0.5 0.333008 -0.5 1s0.333008 1 1 1
c-0.666992 18.667 -4.66699 36.5 -12 53.5s-17.333 31.667 -30 44s-27.5 22.166 -44.5 29.499s-35.167 11 -54.5 11s-37.333 -3.66699 -54 -11s-31.334 -17.166 -44.001 -29.499s-22.667 -27 -30 -44s-11 -35.167 -11 -54.5s3.66699 -37.333 11 -54
s17.333 -31.334 30 -44.001s27.334 -22.667 44.001 -30s34.667 -11 54 -11c17.333 0 35.333 3.33301 54 10l2 1v-1l50 -90l-1 -1c-32 -25.333 -72.667 -38 -122 -38c-36 0 -69.667 6.66699 -101 20s-58.666 31.666 -81.999 54.999s-41.833 50.666 -55.5 81.999
s-20.5 65 -20.5 101s6.83301 69.667 20.5 101s32.167 58.666 55.5 81.999s50.666 41.666 81.999 54.999s65 20 101 20c67.333 0 120 -25 158 -75v68h132v-26c19.333 10.667 39.5 18.834 60.5 24.501s42.833 8.5 65.5 8.5z" />
    <glyph glyph-name="egrave" unicode="&#xe8;" horiz-adv-x="560" 
d="M279 508c36 0 70 -6.66699 102 -20s59.667 -31.666 83 -54.999s41.833 -50.666 55.5 -81.999s20.5 -65 20.5 -101c0 -9.33301 -0.666992 -18.666 -2 -27.999s-3 -19 -5 -29v-1h-47h-88h-120l-64 101h188c-8.66699 28 -23.834 51 -45.501 69s-47.5 27 -77.5 27
c-18 0 -34.833 -3.66699 -50.5 -11s-29.167 -17.166 -40.5 -29.499s-20.333 -27 -27 -44s-10 -35.167 -10 -54.5c0 -15.333 3 -31.166 9 -47.499s14.667 -31.333 26 -45s24.833 -25 40.5 -34s33.167 -13.5 52.5 -13.5c18.667 0 35.5 2.66699 50.5 8s29.5 16.666 43.5 33.999
l1 1v-1l116 -52l-1 -1c-23.333 -34 -53.666 -60.333 -90.999 -79s-77 -28 -119 -28c-36 0 -69.667 6.66699 -101 20s-58.666 31.666 -81.999 54.999s-41.833 50.666 -55.5 81.999s-20.5 65 -20.5 101s6.83301 69.667 20.5 101s32.167 58.666 55.5 81.999
s50.666 41.666 81.999 54.999s65 20 101 20zM262 547l-74 115h136l46 -115h-108z" />
    <glyph glyph-name="eacute" unicode="&#xe9;" 
d="M280 508c35.333 0 68.6689 -6.83398 100.002 -20.501s58.666 -32.167 81.999 -55.5s41.833 -50.666 55.5 -81.999s20.5 -64.666 20.5 -99.999c0 -19.333 -2.33301 -38 -7 -56h-45h-90h-119l-63 100h186c-8 26.667 -22.667 49.167 -44 67.5s-46.666 27.5 -75.999 27.5
c-18 0 -35 -3.66699 -51 -11s-29.833 -17.166 -41.5 -29.499s-20.834 -27 -27.501 -44s-10 -35.167 -10 -54.5c0 -15.333 3.16699 -31.166 9.5 -47.499s15.166 -31.166 26.499 -44.499s25 -24.5 41 -33.5s33.667 -13.5 53 -13.5c18 0 34.5 2.5 49.5 7.5
s28.833 16.167 41.5 33.5l1 1l1 -1l116 -52l-1 -1c-24 -34 -54.667 -60.333 -92 -79s-76 -28 -116 -28c-36 0 -69.667 6.83301 -101 20.5s-58.833 32.167 -82.5 55.5s-42.334 50.666 -56.001 81.999s-20.5 64.666 -20.5 99.999s6.83301 68.666 20.5 99.999
s32.334 58.666 56.001 81.999s51.167 41.833 82.5 55.5s65 20.5 101 20.5zM298.003 545.999h-109l48 116h132z" />
    <glyph glyph-name="ecircumflex" unicode="&#xea;" 
d="M280 508c35.333 0 68.667 -6.83105 100 -20.498s58.666 -32.167 81.999 -55.5s41.833 -50.5 55.5 -81.5s20.5 -64.167 20.5 -99.5c0 -19.333 -2 -38 -6 -56v-1h-46h-90h-118l-64 101h187c-8.66699 27.333 -23.667 49.833 -45 67.5s-46.666 26.5 -75.999 26.5
c-18 0 -35 -3.5 -51 -10.5s-29.667 -16.667 -41 -29s-20.333 -27 -27 -44s-10 -35.167 -10 -54.5c0 -15.333 3 -31.166 9 -47.499s14.667 -31.333 26 -45s24.833 -25 40.5 -34s33.5 -13.5 53.5 -13.5c18 0 34.5 2.66699 49.5 8s28.833 16.666 41.5 33.999h1h1l116 -53
c-24.667 -34 -55.167 -60.333 -91.5 -79s-75.5 -28 -117.5 -28c-36 0 -69.667 6.83301 -101 20.5s-58.833 32.167 -82.5 55.5s-42.334 50.666 -56.001 81.999s-20.5 64.666 -20.5 99.999s6.83301 68.5 20.5 99.5s32.334 58.167 56.001 81.5s51.167 41.833 82.5 55.5
s65 20.5 101 20.5zM244.001 547.002h-85l83 136h3h71h1l82 -136h-83l-34 68z" />
    <glyph glyph-name="edieresis" unicode="&#xeb;" horiz-adv-x="559" 
d="M280 508c35.333 0 68.665 -6.83105 99.998 -20.498s58.833 -32.167 82.5 -55.5s42.334 -50.5 56.001 -81.5s20.5 -64.167 20.5 -99.5c0 -21.333 -2.33301 -40.333 -7 -57h-45h-91h-118l-64 101h187c-7.33301 28 -22 50.667 -44 68s-47.667 26 -77 26
c-18 0 -35 -3.5 -51 -10.5s-29.667 -16.667 -41 -29s-20.333 -26.833 -27 -43.5s-10 -35 -10 -55c0 -15.333 3 -31.333 9 -48s14.667 -31.834 26 -45.501s24.833 -25 40.5 -34s33.5 -13.5 53.5 -13.5c18.667 0 35.334 2.66699 50.001 8s28.667 17 42 35l1 1l1 -1l117 -54h-1
c-24.667 -34 -55.667 -60.333 -93 -79s-76.333 -28 -117 -28c-36 0 -69.833 6.83301 -101.5 20.5s-59.167 32.167 -82.5 55.5s-41.833 50.666 -55.5 81.999s-20.5 65 -20.5 101c0 35.333 6.83301 68.5 20.5 99.5s32.167 58.167 55.5 81.5s50.833 41.833 82.5 55.5
s65.5 20.5 101.5 20.5zM184.999 554.002c-16.667 0 -30.999 5.83203 -42.999 17.499s-18 25.834 -18 42.501s6 31 18 43s26.667 18 44 18s31.666 -6 42.999 -18s17 -26.667 17 -44c0 -16.667 -5.83301 -30.667 -17.5 -42s-26.167 -17 -43.5 -17zM373 554.001
c-16.667 0 -30.668 5.83203 -42.001 17.499s-17 25.834 -17 42.501s5.83301 31 17.5 43s25.834 18 42.501 18s31 -6 43 -18s17.667 -26.667 17 -44c0 -16.667 -6 -30.667 -18 -42s-26.333 -17 -43 -17z" />
    <glyph glyph-name="igrave" unicode="&#xec;" horiz-adv-x="242" 
d="M79 0l1 500h132v-500h-133zM212 556h-108l-74 115h135z" />
    <glyph glyph-name="iacute" unicode="&#xed;" horiz-adv-x="249" 
d="M30 0v500h134v-500h-134zM219 671l-72 -115h-110l49 115h133z" />
    <glyph glyph-name="icircumflex" unicode="&#xee;" horiz-adv-x="303" 
d="M85 1v499h133v-499h-133zM151 625l-36 -68h-85l84 135h1h72h1l85 -135h-86z" />
    <glyph glyph-name="idieresis" unicode="&#xef;" horiz-adv-x="370" 
d="M118 500h133v-500h-133v500zM151 620c0 -17.333 -5.83203 -31.668 -17.499 -43.001s-26.167 -17 -43.5 -17c-16.667 0 -30.834 5.83301 -42.501 17.5s-17.5 26.167 -17.5 43.5c0 16.667 6 30.834 18 42.501s26 17.5 42 17.5c17.333 0 31.833 -6 43.5 -18
s17.5 -26.333 17.5 -43zM280.001 680.998c16.667 0 30.835 -6.00195 42.502 -18.002s17.167 -26.333 16.5 -43c0 -17.333 -5.83301 -31.666 -17.5 -42.999s-25.834 -17 -42.501 -17c-17.333 0 -32 5.83301 -44 17.5s-18 26.167 -18 43.5
c0 16.667 6.16699 30.834 18.5 42.501s27.166 17.5 44.499 17.5z" />
    <glyph glyph-name="ograve" unicode="&#xf2;" 
d="M280 508c35.333 0 68.666 -6.83301 99.999 -20.5s58.666 -32.334 81.999 -56.001s41.833 -51.167 55.5 -82.5s20.5 -64.666 20.5 -99.999s-6.83301 -68.5 -20.5 -99.5s-32.167 -58.167 -55.5 -81.5s-50.666 -41.833 -81.999 -55.5s-64.666 -20.5 -99.999 -20.5
c-36 0 -69.667 6.83301 -101 20.5s-58.833 32.167 -82.5 55.5s-42.334 50.5 -56.001 81.5s-20.5 64.167 -20.5 99.5s6.83301 68.666 20.5 99.999s32.334 58.833 56.001 82.5s51.167 42.334 82.5 56.001s65 20.5 101 20.5zM280 110c16.667 0 32.334 3.66699 47.001 11
s27.334 17.5 38.001 30.5s19.167 28.333 25.5 46s9.5 36.5 9.5 56.5c0 18.667 -3.16699 36.334 -9.5 53.001s-14.833 31.167 -25.5 43.5s-23.334 22 -38.001 29s-30.334 10.5 -47.001 10.5c-17.333 0 -33.333 -3.5 -48 -10.5s-27.334 -16.667 -38.001 -29
s-19.167 -26.833 -25.5 -43.5s-9.5 -34.334 -9.5 -53.001c0 -20 3.16699 -38.833 9.5 -56.5s14.833 -33 25.5 -46s23.334 -23.167 38.001 -30.5s30.667 -11 48 -11zM261 555l-73 115h135l47 -115h-109z" />
    <glyph glyph-name="oacute" unicode="&#xf3;" 
d="M279 507c36 0 69.667 -6.66699 101 -20s58.666 -31.666 81.999 -54.999s41.833 -50.666 55.5 -81.999s20.5 -64.666 20.5 -99.999s-6.83301 -68.666 -20.5 -99.999s-32.167 -58.666 -55.5 -81.999s-50.666 -41.833 -81.999 -55.5s-65 -20.5 -101 -20.5
c-35.333 0 -68.833 6.83301 -100.5 20.5s-59.167 32.167 -82.5 55.5s-41.833 50.666 -55.5 81.999s-20.5 64.666 -20.5 99.999s6.83301 68.666 20.5 99.999s32.167 58.666 55.5 81.999s50.833 41.666 82.5 54.999s65.167 20 100.5 20zM279 110
c16.667 0 32.5 3.66699 47.5 11s27.833 17.333 38.5 30s19.167 27.834 25.5 45.501s9.5 36.5 9.5 56.5c0 19.333 -3.16699 37.333 -9.5 54s-14.833 31.334 -25.5 44.001s-23.5 22.5 -38.5 29.5s-30.833 10.5 -47.5 10.5s-32.334 -3.5 -47.001 -10.5
s-27.334 -16.833 -38.001 -29.5s-19 -27.334 -25 -44.001s-9 -34.667 -9 -54c0 -20 3 -38.833 9 -56.5s14.333 -32.834 25 -45.501s23.334 -22.667 38.001 -30s30.334 -11 47.001 -11zM297 555h-108l47 115h134z" />
    <glyph glyph-name="ocircumflex" unicode="&#xf4;" horiz-adv-x="557" 
d="M279 507c36 0 69.667 -6.83301 101 -20.5s58.666 -32.167 81.999 -55.5s41.666 -50.5 54.999 -81.5s20 -64.167 20 -99.5c0 -36 -6.66699 -69.667 -20 -101s-31.666 -58.666 -54.999 -81.999s-50.666 -41.666 -81.999 -54.999s-65 -20 -101 -20s-69.667 6.66699 -101 20
s-58.666 31.666 -81.999 54.999s-41.833 50.666 -55.5 81.999s-20.5 65 -20.5 101c0 35.333 6.83301 68.5 20.5 99.5s32.167 58.167 55.5 81.5s50.666 41.833 81.999 55.5s65 20.5 101 20.5zM279 110c16.667 0 32.334 3.66699 47.001 11s27.5 17.5 38.5 30.5
s19.667 28.167 26 45.5s9.5 36 9.5 56c0 18.667 -3.16699 36.334 -9.5 53.001s-15 31.167 -26 43.5s-23.833 22.166 -38.5 29.499s-30.334 11 -47.001 11s-32.334 -3.66699 -47.001 -11s-27.5 -17.166 -38.5 -29.499s-19.667 -26.833 -26 -43.5s-9.5 -34.334 -9.5 -53.001
c0 -20 3.16699 -38.667 9.5 -56s15 -32.5 26 -45.5s23.833 -23.167 38.5 -30.5s30.334 -11 47.001 -11zM243 554h-85l83 135h3h71h1l84 -135h-85l-35 68z" />
    <glyph glyph-name="otilde" unicode="&#xf5;" horiz-adv-x="559" 
d="M280 508c35.333 0 68.666 -6.83301 99.999 -20.5s58.833 -32.167 82.5 -55.5s42.334 -50.666 56.001 -81.999s20.5 -65 20.5 -101c0 -35.333 -6.83301 -68.5 -20.5 -99.5s-32.334 -58.167 -56.001 -81.5s-51.167 -41.833 -82.5 -55.5s-64.666 -20.5 -99.999 -20.5
c-36 0 -69.833 6.83301 -101.5 20.5s-59.167 32.167 -82.5 55.5s-41.833 50.5 -55.5 81.5s-20.5 64.167 -20.5 99.5c0 36 6.83301 69.667 20.5 101s32.167 58.666 55.5 81.999s50.833 41.833 82.5 55.5s65.5 20.5 101.5 20.5zM280 110c16.667 0 32.167 3.66699 46.5 11
s27 17.5 38 30.5s19.667 28.333 26 46s9.5 36.5 9.5 56.5c0 18.667 -3.16699 36.334 -9.5 53.001s-15 31.167 -26 43.5s-23.667 22 -38 29s-29.833 10.5 -46.5 10.5s-32.334 -3.5 -47.001 -10.5s-27.5 -16.667 -38.5 -29s-19.667 -26.833 -26 -43.5
s-9.5 -34.334 -9.5 -53.001c0 -20 3.16699 -38.833 9.5 -56.5s15 -33 26 -46s23.833 -23.167 38.5 -30.5s30.334 -11 47.001 -11zM149 552l-55 32l15 30c12.667 23.333 27.167 38.833 43.5 46.5s33.166 10.5 50.499 8.5s34.166 -7 50.499 -15s31.166 -15.667 44.499 -23
c16 -8.66699 29.333 -15.334 40 -20.001s19.5 -7.5 26.5 -8.5s12.667 -0.333008 17 2s8.5 6.16602 12.5 11.499l17 29l54 -38l-18 -27c-10.667 -17.333 -22.167 -29.166 -34.5 -35.499s-25.166 -9.5 -38.499 -9.5c-19.333 0 -38 4.16699 -56 12.5s-34.667 16.833 -50 25.5
c-17.333 9.33301 -31.666 16.333 -42.999 21s-20.666 7.33398 -27.999 8.00098s-13.333 -0.833008 -18 -4.5s-9 -9.16699 -13 -16.5z" />
    <glyph glyph-name="odieresis" unicode="&#xf6;" horiz-adv-x="560" 
d="M280 508c35.333 0 68.833 -6.83301 100.5 -20.5s59.334 -32.167 83.001 -55.5s42.334 -50.666 56.001 -81.999s20.5 -64.666 20.5 -99.999s-6.83301 -68.666 -20.5 -99.999s-32.334 -58.666 -56.001 -81.999s-51.334 -41.833 -83.001 -55.5s-65.167 -20.5 -100.5 -20.5
c-36 0 -69.667 6.83301 -101 20.5s-58.833 32.167 -82.5 55.5s-42.334 50.666 -56.001 81.999s-20.5 64.666 -20.5 99.999s6.83301 68.666 20.5 99.999s32.334 58.666 56.001 81.999s51.167 41.833 82.5 55.5s65 20.5 101 20.5zM280 111c16.667 0 32.334 3.66699 47.001 11
s27.5 17.5 38.5 30.5s19.667 28.333 26 46s9.5 36.5 9.5 56.5c0 18.667 -3.16699 36.334 -9.5 53.001s-15 31.167 -26 43.5s-23.833 22 -38.5 29s-30.334 10.5 -47.001 10.5s-32.5 -3.5 -47.5 -10.5s-28 -16.667 -39 -29s-19.667 -26.833 -26 -43.5
s-9.5 -34.334 -9.5 -53.001c0 -20 3.16699 -38.833 9.5 -56.5s15 -33 26 -46s24 -23.167 39 -30.5s30.833 -11 47.5 -11zM185 560c-17.333 0.666992 -31.666 7.00098 -42.999 19.001s-17 26.667 -17 44c0 16 5.83301 30 17.5 42s26.167 17.667 43.5 17
c17.333 0 31.666 -5.83301 42.999 -17.5s17 -25.834 17 -42.501c0 -17.333 -5.83301 -32 -17.5 -44s-26.167 -18 -43.5 -18zM374 560.001c-17.333 0.666992 -31.8359 7.00098 -43.5029 19.001s-17.5 26.667 -17.5 44c0.666992 16 6.83398 30 18.501 42
s26.167 17.667 43.5 17c16.667 0 30.834 -5.83301 42.501 -17.5s17.167 -25.834 16.5 -42.501c0 -17.333 -5.66699 -32 -17 -44s-25.666 -18 -42.999 -18z" />
    <glyph glyph-name="ugrave" unicode="&#xf9;" horiz-adv-x="569" 
d="M539 501v-505h-137v505h137zM328 125l49.0039 -87.999h-1c-34.667 -30.667 -78.334 -46 -131.001 -46c-80.667 0 -138.334 21.667 -173.001 65c-15.333 21.333 -27 47.5 -35 78.5s-12 68.833 -12 113.5v253h137v-253c0 -18.667 0.5 -36.5 1.5 -53.5s4.66699 -32 11 -45
s16.166 -23.333 29.499 -31s32.666 -11.5 57.999 -11.5c12 0 23.333 1.66699 34 5s21 7.66602 31 12.999h1zM265.004 564.001l-75 116h136l48 -116h-109z" />
    <glyph glyph-name="uacute" unicode="&#xfa;" horiz-adv-x="567" 
d="M537 500v-503h-137v503h137zM374 38l-1 0.00195312c-32.667 -30.667 -75.667 -46 -129 -46c-80 0 -137.667 21.667 -173 65c-15.333 21.333 -26.833 47.5 -34.5 78.5s-11.5 68.5 -11.5 112.5v252h137v-252c0 -18.667 0.5 -36.334 1.5 -53.001s4.66699 -31.5 11 -44.5
s16.166 -23.333 29.499 -31s32.333 -11.5 57 -11.5c11.333 0 22.333 1.66699 33 5s21.334 7.66602 32.001 12.999zM299 562.002h-109l47 116h135z" />
    <glyph glyph-name="ucircumflex" unicode="&#xfb;" horiz-adv-x="569" 
d="M539 502v-505h-137v505h137zM327 126l49.002 -87.999l-1 -1c-34 -30 -77.667 -45 -131 -45c-80.667 0 -138 21.667 -172 65c-31.333 40 -47 103.333 -47 190v255h136v-255c0 -18 0.5 -35.5 1.5 -52.5s4.66699 -31.833 11 -44.5s16.166 -22.834 29.499 -30.501
s32.666 -11.5 57.999 -11.5c11.333 0 22.5 1.5 33.5 4.5s21.5 7.16699 31.5 12.5zM245.002 564.001h-86l85 136h1h72h2l86 -136h-87l-35 68z" />
    <glyph glyph-name="udieresis" unicode="&#xfc;" horiz-adv-x="567" 
d="M537 500v-503h-137v503h137zM326 127l49.002 -88.998h-1c-33.333 -30.667 -76.333 -46 -129 -46c-80.667 0 -138.334 21.667 -173.001 65c-31.333 40 -47 103.667 -47 191v252h137v-252c0 -18.667 0.5 -36.334 1.5 -53.001s4.66699 -31.5 11 -44.5
s16.166 -23.333 29.499 -31s32.333 -11.5 57 -11.5c11.333 0 22.333 1.66699 33 5s21 7.66602 31 12.999zM186.002 566.002c-17.333 0.666992 -31.833 7 -43.5 19s-17.5 26.667 -17.5 44c0 16.667 6 31 18 43s26.333 17.667 43 17c17.333 0 32 -5.83301 44 -17.5
s18 -26.167 18 -43.5s-6.16699 -32 -18.5 -44s-26.833 -18 -43.5 -18zM437.002 628.002c-0.666992 -17.333 -6.83301 -32 -18.5 -44s-26.167 -18 -43.5 -18c-17.333 0.666992 -31.833 7 -43.5 19s-17.5 26.667 -17.5 44c0 16.667 6 31 18 43s26.667 17.667 44 17
c17.333 0 31.833 -5.83301 43.5 -17.5s17.5 -26.167 17.5 -43.5z" />
    <glyph glyph-name="yacute" unicode="&#xfd;" horiz-adv-x="582" 
d="M194 38l-184 461h145v-1l133 -382l-93 -79zM572 499l-0.00292969 -1.99902l-33 -90l-30 -82c-34 -95.333 -64.5 -176.5 -91.5 -243.5s-55.5 -122.167 -85.5 -165.5c-30.667 -44 -65 -75.5 -103 -94.5s-85.333 -28.5 -142 -28.5h-2v136h2c18 0 33.833 0.833008 47.5 2.5
s26.334 4.66699 38.001 9s22.167 10.5 31.5 18.5s18.333 18.333 27 31c8.66699 12 17.334 26.667 26.001 44s17.834 38.166 27.501 62.499s20.167 52.333 31.5 84l38 108.5l34 97.5l40 111.5v1h144zM347.997 557.001h-112l49 116h135z" />
    <glyph glyph-name="ydieresis" unicode="&#xff;" horiz-adv-x="583" 
d="M196 38l-186 458h144v-1l135 -380l-92 -79zM573 496l-1.00098 -2.00098c-12 -30.667 -23.167 -60.5 -33.5 -89.5l-29.5 -82.5c-34 -94 -64.5 -174.667 -91.5 -242s-55.5 -122.333 -85.5 -165c-30 -43.333 -64.167 -74.666 -102.5 -93.999s-86.166 -29 -143.499 -29h-1
v137h1c35.333 0 64.166 3.5 86.499 10.5s42.166 23.167 59.499 48.5c8.66699 12 17.334 26.833 26.001 44.5s17.834 38.5 27.501 62.5s20.167 51.833 31.5 83.5l38 108.5l33.5 97l39.5 111v1h145zM193.999 559.999c-17.333 0 -31.833 6 -43.5 18s-17.5 26.667 -17.5 44
c0 16.667 6 31 18 43s26.667 17.667 44 17c17.333 0 31.833 -6 43.5 -18s17.167 -26.333 16.5 -43c0 -17.333 -5.83301 -31.833 -17.5 -43.5s-26.167 -17.5 -43.5 -17.5zM382.999 559.999c-17.333 0 -31.833 6 -43.5 18s-17.5 26.667 -17.5 44c0 16.667 6 31 18 43
s26.667 17.667 44 17c17.333 0 31.833 -6 43.5 -18s17.167 -26.333 16.5 -43c0 -17.333 -5.83301 -31.833 -17.5 -43.5s-26.167 -17.5 -43.5 -17.5z" />
    <glyph glyph-name="oe" unicode="&#x153;" horiz-adv-x="958" 
d="M673 507c36 0 69.834 -6.66797 101.501 -20.001s59.167 -31.666 82.5 -54.999s41.833 -50.666 55.5 -81.999s20.5 -64.666 20.5 -99.999c0 -9.33301 -0.666992 -18.833 -2 -28.5l-4 -28.5l-1 -1h-255l-63 101h188c-8 28 -23 51 -45 69s-48 27 -78 27
c-18 0 -34.833 -3.66699 -50.5 -11s-29.167 -17.166 -40.5 -29.499s-20.333 -27 -27 -44s-10 -35.167 -10 -54.5c0 -15.333 3 -31.166 9 -47.499s14.5 -31.166 25.5 -44.499s24.5 -24.5 40.5 -33.5s33.667 -13.5 53 -13.5c18.667 0 35.5 2.5 50.5 7.5s29.5 16.167 43.5 33.5
h1l116 -52l-1 -2c-24.667 -33.333 -55.334 -59.333 -92.001 -78s-76 -28 -118 -28c-38.667 0 -74.667 7.83301 -108 23.5s-61.666 37.167 -84.999 64.5c-24.667 -27.333 -53.667 -48.833 -87 -64.5s-69.666 -23.5 -108.999 -23.5c-36 0 -69.667 6.83301 -101 20.5
s-58.666 32.167 -81.999 55.5s-41.833 50.666 -55.5 81.999s-20.5 64.666 -20.5 99.999s6.83301 68.666 20.5 99.999s32.167 58.666 55.5 81.999s50.666 41.833 81.999 55.5s65 20.5 101 20.5c39.333 0 75.666 -7.83301 108.999 -23.5s62.333 -37.167 87 -64.5
c23.333 27.333 51.666 48.666 84.999 63.999s69.333 23 108 23zM284.001 110.999c16.667 0 32.334 3.66699 47.001 11s27.5 17.5 38.5 30.5s19.667 28.167 26 45.5s9.5 36 9.5 56c0 18.667 -3.16699 36.334 -9.5 53.001s-15 31.167 -26 43.5s-23.833 22.166 -38.5 29.499
s-30.334 11 -47.001 11s-32.334 -3.66699 -47.001 -11s-27.5 -17.166 -38.5 -29.499s-19.667 -26.833 -26 -43.5s-9.5 -34.334 -9.5 -53.001c0 -20 3.16699 -38.667 9.5 -56s15 -32.5 26 -45.5s23.833 -23.167 38.5 -30.5s30.334 -11 47.001 -11z" />
    <glyph glyph-name="Scaron" unicode="&#x160;" horiz-adv-x="607" 
d="M356 409c32 -8 61.4971 -17.332 88.4971 -27.999s50.333 -23.667 70 -39s35 -33.666 46 -54.999s16.5 -47 16.5 -77v-2c0 -32 -6.5 -61.333 -19.5 -88s-30.833 -49.5 -53.5 -68.5s-49.5 -33.667 -80.5 -44s-64.833 -15.5 -101.5 -15.5c-34 0 -66.5 4.16699 -97.5 12.5
s-59.333 19.166 -85 32.499s-47.834 28.833 -66.501 46.5s-33 35.834 -43 54.501l117 74c12.667 -13.333 25.167 -25.5 37.5 -36.5s25.5 -20.5 39.5 -28.5s29.333 -14.167 46 -18.5s35 -6.5 55 -6.5c12.667 0 25.667 1.33301 39 4s25.333 7 36 13s19.334 13.5 26.001 22.5
s10 20.167 10 33.5c0 9.33301 -2.33301 18.333 -7 27s-12.834 17.167 -24.501 25.5s-27.167 16.333 -46.5 24s-43.666 15.167 -72.999 22.5c-36 8.66699 -68.333 18.5 -97 29.5s-53 24.333 -73 40s-35.167 34.167 -45.5 55.5s-15.5 47 -15.5 77v2
c0 32.667 6.16699 62 18.5 88s29.333 48 51 66s47.334 31.833 77.001 41.5s61.834 14.5 96.501 14.5c35.333 0 67.333 -4 96 -12s54.167 -18.167 76.5 -30.5s41.833 -26.166 58.5 -41.499s30.667 -30.333 42 -45l-114 -75c-28 26.667 -54.833 45.667 -80.5 57
s-52.5 17 -80.5 17c-17.333 0 -32.166 -2 -44.499 -6s-22.5 -9.33301 -30.5 -16s-14 -13.834 -18 -21.501s-6 -15.167 -6 -22.5c-0.666992 -13.333 2.5 -25 9.5 -35s17.333 -18.833 31 -26.5s30.5 -14.834 50.5 -21.501s43 -13.334 69 -20.001zM265.997 771.001l-84 136h86
l36 -68l35 68h85l-83 -136h-2h-71h-2z" />
    <glyph glyph-name="scaron" unicode="&#x161;" horiz-adv-x="459" 
d="M282 296c21.333 -7.33301 41.3311 -14.666 59.998 -21.999s34.834 -16.333 48.501 -27s24.334 -23.334 32.001 -38.001s11.5 -32.667 11.5 -54v-2c0 -50.667 -16.833 -90.167 -50.5 -118.5s-80.834 -42.5 -141.501 -42.5c-38.667 0 -76.334 6.5 -113.001 19.5
s-71 31.5 -103 55.5l-1 1h1l68 108l1 -1c40.667 -44 91 -66 151 -66c38.667 0 58 12.667 58 38c0 12.667 -6.33301 22 -19 28s-27.667 11.333 -45 16c-3.33301 1.33301 -6.66602 2.5 -9.99902 3.5s-6.66602 2.16699 -9.99902 3.5c-20 5.33301 -40 11.166 -60 17.499
s-38.167 15 -54.5 26s-29.5 24.833 -39.5 41.5s-15 38 -15 64v3c0 23.333 4.33301 44.666 13 63.999s21 36 37 50s35.333 24.833 58 32.5s48 11.5 76 11.5c32 0 64.167 -5 96.5 -15s62.5 -24 90.5 -42l1 -1l-1 -1l-60 -111l-2 1c-15.333 15.333 -34.166 27.5 -56.499 36.5
s-46.166 13.5 -71.499 13.5c-5.33301 0 -11 -0.5 -17 -1.5s-11.5 -2.66699 -16.5 -5s-9.33301 -5.83301 -13 -10.5s-5.5 -10.667 -5.5 -18c0 -6 2.66699 -11.667 8 -17s12.166 -10.166 20.499 -14.499s17.833 -8.33301 28.5 -12l32 -10.5
c5.33301 -1.33301 9.66602 -2.66602 12.999 -3.99902zM190.998 555l-83 136h86l37 -68l34 68h85l-83 -136h-2h-71h-3z" />
    <glyph glyph-name="Ydieresis" unicode="&#x178;" horiz-adv-x="578" 
d="M195 45l-185 455h143v-2l135 -376l-92 -79zM568 500l-1.00195 -2.99902l-32.5 -88l-29.5 -82c-33.333 -93.333 -63.5 -173.5 -90.5 -240.5s-55.167 -121.833 -84.5 -164.5c-15.333 -21.333 -31.166 -39.666 -47.499 -54.999s-34.333 -27.833 -54 -37.5
s-41.167 -16.834 -64.5 -21.501s-49.333 -7 -78 -7h-1v135h1c17.333 0 33 0.666992 47 2s26.833 4.16602 38.5 8.49902s22.167 10.5 31.5 18.5s18.333 18.333 27 31c8.66699 12 17.334 26.667 26.001 44s17.667 38 27 62l31 83.5l38 107.5l32.5 95.5
c11.667 33.667 25.167 70.167 40.5 109.5v2h143zM192.998 564.001c-17.333 0 -31.999 5.83203 -43.999 17.499s-18 25.834 -18 42.501c0 17.333 6.16699 31.833 18.5 43.5s27.166 17.167 44.499 16.5c16.667 0 30.834 -5.83301 42.501 -17.5s17.167 -26.167 16.5 -43.5
c0 -16.667 -5.83301 -30.667 -17.5 -42s-25.834 -17 -42.501 -17zM378.999 564c-16 0 -29.832 5.83203 -41.499 17.499s-17.5 25.834 -17.5 42.501c0 17.333 6 31.833 18 43.5s26 17.167 42 16.5c17.333 0 32.166 -5.83301 44.499 -17.5s18.166 -26.167 17.499 -43.5
c0 -16.667 -6.16699 -30.667 -18.5 -42s-27.166 -17 -44.499 -17z" />
    <glyph glyph-name="Zcaron" unicode="&#x17d;" horiz-adv-x="630" 
d="M194 122h43h378v-122h-605v122h184zM36 700h584v-137l-413 -427l-138 63l368 378h-401v123zM291 771h-1l-83 135h84l38 -69l34 69h86l-84 -135h-2h-72z" />
    <glyph glyph-name="zcaron" unicode="&#x17e;" horiz-adv-x="536" 
d="M10 118h500v-118h-500v118zM526 502v-132v1l-293 -244l-1 1l-156 51l2 2l254 211h-306v110h500zM232 557h-1l-84 137h85l37 -69l35 69h86l-84 -137h-3h-71z" />
    <glyph glyph-name="ring" unicode="&#x2da;" horiz-adv-x="324" 
d="M161 570c-18 0 -34.833 3.5 -50.5 10.5s-29.5 16.5 -41.5 28.5s-21.5 26.167 -28.5 42.5s-10.5 33.5 -10.5 51.5s3.5 34.833 10.5 50.5s16.5 29.5 28.5 41.5s25.833 21.5 41.5 28.5s32.5 10.5 50.5 10.5s35.167 -3.5 51.5 -10.5s30.5 -16.5 42.5 -28.5
s21.5 -25.833 28.5 -41.5s10.5 -32.5 10.5 -50.5s-3.5 -35.167 -10.5 -51.5s-16.5 -30.5 -28.5 -42.5s-26.167 -21.5 -42.5 -28.5s-33.5 -10.5 -51.5 -10.5zM161 757c-14.667 0 -27.334 -5.33301 -38.001 -16s-16 -23.334 -16 -38.001c0 -15.333 5.33301 -28.5 16 -39.5
s23.334 -16.5 38.001 -16.5c15.333 0 28.5 5.5 39.5 16.5s16.5 24.167 16.5 39.5c0 14.667 -5.5 27.334 -16.5 38.001s-24.167 16 -39.5 16z" />
    <glyph glyph-name="quoteleft" unicode="&#x2018;" horiz-adv-x="255" 
d="M180 700l45 -257h-94l-101 257h150z" />
    <glyph glyph-name="quoteright" unicode="&#x2019;" horiz-adv-x="255" 
d="M225 700l-101 -257h-94l45 257h150z" />
    <glyph glyph-name="quotesinglbase" unicode="&#x201a;" horiz-adv-x="233" 
d="M203 116l-89 -228h-84l40 228h133z" />
    <glyph glyph-name="quotedblleft" unicode="&#x201c;" horiz-adv-x="423" 
d="M349 700l44 -255h-93l-99 255h148zM180 700l44 -255h-94l-100 255h150z" />
    <glyph glyph-name="quotedblright" unicode="&#x201d;" horiz-adv-x="423" 
d="M222 700l-99 -255h-93l44 255h148zM393 700l-100 -255h-94l44 255h150z" />
    <glyph glyph-name="quotedblbase" unicode="&#x201e;" horiz-adv-x="423" 
d="M222 118l-99 -255h-93l44 255h148zM393 118l-100 -255h-94l44 255h150z" />
    <glyph glyph-name="dagger" unicode="&#x2020;" horiz-adv-x="481" 
d="M451 587v-125h-137v-470h-143v470h-141v125h141v121h143v-121h137v0z" />
    <glyph glyph-name="daggerdbl" unicode="&#x2021;" horiz-adv-x="482" 
d="M452 462h-138v-222h138v-124h-138v-126h-144v126h-140v124h140v222h-140v124h140v121h144v-121h138v-124v0z" />
    <glyph glyph-name="bullet" unicode="&#x2022;" horiz-adv-x="214" 
d="M183 355c-0.666992 -21.333 -8.33301 -39.499 -23 -54.499s-32.667 -22.167 -54 -21.5c-21.333 0 -39.333 7.5 -54 22.5s-21.667 32.833 -21 53.5c0 21.333 7.33301 39.5 22 54.5s32.667 22.5 54 22.5c21.333 -0.666992 39.5 -8.33398 54.5 -23.001
s22.167 -32.667 21.5 -54z" />
    <glyph glyph-name="ellipsis" unicode="&#x2026;" horiz-adv-x="697" 
d="M110 149c22 0 40.666 -7.66504 55.999 -22.998s22.666 -34 21.999 -56c0 -22 -7.83301 -40.667 -23.5 -56s-34.5 -23 -56.5 -23c-21.333 0.666992 -39.666 8.66699 -54.999 24s-22.666 34.333 -21.999 57c0 21.333 7.66699 39.666 23 54.999s34 22.666 56 21.999z
M348.999 149.002c22 0 40.666 -7.66504 55.999 -22.998s22.666 -34 21.999 -56c0 -22 -7.83301 -40.667 -23.5 -56s-34.5 -23 -56.5 -23c-21.333 0.666992 -39.666 8.66699 -54.999 24s-22.666 34.333 -21.999 57c0 21.333 7.66699 39.666 23 54.999s34 22.666 56 21.999z
M587.998 149.004c22 0 40.666 -7.66504 55.999 -22.998s22.666 -34 21.999 -56c0 -22 -7.83301 -40.667 -23.5 -56s-34.5 -23 -56.5 -23c-21.333 0.666992 -39.666 8.66699 -54.999 24s-22.666 34.333 -21.999 57c0 21.333 7.66699 39.666 23 54.999s34 22.666 56 21.999z
" />
    <glyph glyph-name="perthousand" unicode="&#x2030;" horiz-adv-x="979" 
d="M566 573l-434 -486l-44 41l433 485zM318 564c0 -20 -3.83301 -38.667 -11.5 -56s-18 -32.5 -31 -45.5s-28.167 -23.333 -45.5 -31s-36 -11.5 -56 -11.5s-38.833 3.83301 -56.5 11.5s-33 18 -46 31s-23.167 28.167 -30.5 45.5s-11 36 -11 56s3.66699 38.667 11 56
s17.5 32.5 30.5 45.5s28.333 23.333 46 31s36.5 11.5 56.5 11.5s38.667 -3.83301 56 -11.5s32.5 -18 45.5 -31s23.333 -28.167 31 -45.5s11.5 -36 11.5 -56zM121 564c0 -15.333 5 -28.333 15 -39s22.667 -16 38 -16s28.333 5.33301 39 16s16 23.667 16 39
s-5.33301 28 -16 38s-23.667 15 -39 15s-28 -5 -38 -15s-15 -22.667 -15 -38zM480 280c20 0 38.667 -3.83301 56 -11.5s32.5 -18 45.5 -31s23.333 -28.167 31 -45.5s11.5 -36 11.5 -56s-3.83301 -38.667 -11.5 -56s-18 -32.5 -31 -45.5s-28.167 -23.333 -45.5 -31
s-36 -11.5 -56 -11.5s-38.833 3.83301 -56.5 11.5s-33 18 -46 31s-23.167 28.167 -30.5 45.5s-11 36 -11 56s3.66699 38.667 11 56s17.5 32.5 30.5 45.5s28.333 23.333 46 31s36.5 11.5 56.5 11.5zM480 83c14.667 0 27.167 5 37.5 15s15.5 22.667 15.5 38
s-5.16699 28.333 -15.5 39s-22.833 16 -37.5 16c-15.333 0 -28.333 -5.33301 -39 -16s-16 -23.667 -16 -39s5.33301 -28 16 -38s23.667 -15 39 -15zM806 280c19.333 0 37.666 -3.83301 54.999 -11.5s32.5 -18 45.5 -31s23.333 -28.167 31 -45.5s11.5 -36 11.5 -56
s-3.83301 -38.667 -11.5 -56s-18 -32.5 -31 -45.5s-28.167 -23.333 -45.5 -31s-35.666 -11.5 -54.999 -11.5c-20 0 -38.833 3.83301 -56.5 11.5s-33 18 -46 31s-23.333 28.167 -31 45.5s-11.5 36 -11.5 56s3.83301 38.667 11.5 56s18 32.5 31 45.5s28.333 23.333 46 31
s36.5 11.5 56.5 11.5zM806 83c14 0 26.333 5 37 15s16 22.667 16 38s-5.33301 28.333 -16 39s-23 16 -37 16c-15.333 0 -28.333 -5.33301 -39 -16s-16 -23.667 -16 -39s5.33301 -28 16 -38s23.667 -15 39 -15z" />
    <glyph glyph-name="guilsinglleft" unicode="&#x2039;" horiz-adv-x="303" 
d="M273 508l-112 -179l112 -178h-131l-112 178l112 179h131v0z" />
    <glyph glyph-name="guilsinglright" unicode="&#x203a;" horiz-adv-x="303" 
d="M30 508h131l112 -179l-112 -178h-131l112 178z" />
    <glyph glyph-name="Euro" unicode="&#x20ac;" horiz-adv-x="736" 
d="M706 161c-16 -25.333 -33.333 -48.499 -52 -69.499s-39.167 -39 -61.5 -54s-46.833 -26.5 -73.5 -34.5s-56 -12 -88 -12c-40 0 -76.833 6.16699 -110.5 18.5s-64 29.666 -91 51.999s-50 48.666 -69 78.999s-33.5 63.5 -43.5 99.5h-87v80h74
c-0.666992 4.66699 -1 9.5 -1 14.5v15.5v14.5c0 5 0.333008 10.167 1 15.5h-74v80h87c10 36 24.5 69.167 43.5 99.5s42 56.5 69 78.5s57.333 39.167 91 51.5s70.5 18.5 110.5 18.5c32 0 61.333 -4 88 -12s51.167 -19.5 73.5 -34.5s42.833 -33 61.5 -54s36 -44.167 52 -69.5
l-117 -75c-9.33301 18 -19 34.5 -29 49.5s-21.333 27.667 -34 38s-26.667 18.5 -42 24.5s-33 9 -53 9c-41.333 0 -76 -11.5 -104 -34.5s-48.667 -52.833 -62 -89.5h202v-80h-220c0 -4.66699 -0.166992 -9.66699 -0.5 -15s-0.5 -10.333 -0.5 -15
c0 -5.33301 0.166992 -10.5 0.5 -15.5s0.5 -9.83301 0.5 -14.5h220v-80h-202c13.333 -37.333 34 -67.166 62 -89.499s62.667 -33.5 104 -33.5c20 0 37.667 2.83301 53 8.5s29.333 13.667 42 24s24 22.833 34 37.5s19.667 31 29 49z" />
    <glyph glyph-name="_0127" horiz-adv-x="0" 
 />
    <glyph glyph-name="_0129" horiz-adv-x="0" 
 />
    </font>
</defs>
</svg>
